<?xml version="1.0" encoding="UTF-8"?>
<svg id="Layer_1" data-name="Layer 1" xmlns="http://www.w3.org/2000/svg" viewBox="0 0 382.08 278.31">
  <defs>
    <style>
      .cls-1 {
        stroke: #000;
        stroke-miterlimit: 10;
        stroke-width: .25px;
      }

      .cls-2 {
        fill: #231f20;
      }
    </style>
  </defs>
  <path class="cls-1" d="M.61,213.31c-2.11-3.88,2.62-28.38,14.36-30.55,7.21-1.62,10.66.43,15.22,3.7,3.16,2.26,6.39,9.89,38.77,10.42,43.77.72,133.34-14.86,208.88-16.93,36.11-.99,59.95,1.73,62.09,1.69,1.37-.03,2.21-.94,2.63-1.59.25-.39.67-.64,1.14-.64h36.86c.76,0,1.38.61,1.39,1.37.03,7.26,0,38.74,0,50.55,0,2.49-2.01,4.5-4.5,4.51-9.81.03-31,.12-38.26.15-1.36,0-2.48-1.07-2.52-2.43-.06-2.08-.04-5.25,0-7.25.01-1.01-.82-1.82-1.83-1.77-3.76.18-12.25.45-16.21-.62-2.36-.64-21.69-5.71-38.17-7.97-51.73-7.08-106.32,5.48-171.88,8.3-22.64.97-76.53-2.24-88.45-2.4s-18.3-6.33-19.5-8.55ZM9.91,205.47c-.35,2.1.77,7.36,4.5,7.51,22.92.92,60.36,5.74,104.37,2.38,33.41-2.55,71.33-7.8,95.19-9.32,21.54-1.38,63.56-1.22,82.05,1.66,16.82,2.62,30.05,5.91,33.99,6.23-1.19-4.37-1.78-11.45-.94-16.14-6.62-1.91-37.49-7-77.3-4.28,44.56-6.09,79.57-4.22,81.17-4.09.39-1.1.68-1.8,1.46-2.84-2.85-1.54-52.37-1.39-91.22.86-50.88,2.95-107,11.1-109.68,11.49-1.8.26-26.37,3.51-54.79,3.8-63.18.65-45.65-22.76-65.41-3.53,4.32,1.83,20.8,11.77,102.04,9.94-77.57,6.41-94.06-1.44-105.44-3.66ZM345.82,190.22c6.59-1.1,11.57-.84,25.65-1.49-8.29-1.55-18.76-2.37-27.57-1.13-4.1,4.83-10.47,10.2-4.55,26.45-3.17-15.84,2.13-19.51,6.48-23.83ZM375.21,228.91c.45-6.34-1.12-22.11-1.18-25.91-2.17,8.7-.97,19.47-1.7,23.28-2.74,1.18-17.05.64-27.06,1.82,5.92.84,23.38,1.26,29.94.81Z"/>
  <path d="M88.08,132.63c2.97-54.15,47.81-97.16,102.7-97.16,48.7,0,89.46,33.85,100.12,79.3h14.31c-.7-3.4-1.53-6.76-2.51-10.05,7.75.34,15.99,2.45,23.76,5.95l-10.03-18.86c-5.92-2-10.91-3.1-20.05-3.52-3.04-6.4-6.64-12.48-10.75-18.18,7.44-2.21,15.93-2.9,24.42-2.11l-15.62-14.57c-6.26.04-11.33.62-20.14,3.21-4.92-5.03-10.29-9.62-16.04-13.7,6.32-4.51,14.11-7.92,22.4-9.95l-19.51-8.69c-5.9,2.08-10.5,4.27-17.97,9.58-6.25-3.14-12.81-5.74-19.64-7.73,4.51-6.31,10.76-12.07,17.93-16.69l-21.28-1.86c-4.9,3.88-8.54,7.46-13.88,14.91-5.08-.68-10.27-1.03-15.53-1.03-1.86,0-3.71.05-5.55.13,2.2-7.44,6.25-14.94,11.53-21.64l-20.72,5.17c-3.37,5.27-5.65,9.84-8.26,18.61-6.99,1.4-13.76,3.42-20.23,6-.34-7.75,1.05-16.14,3.86-24.18l-17.91,11.63c-1.47,6.08-2.14,11.14-1.76,20.29-6.1,3.58-11.84,7.69-17.17,12.28-2.85-7.22-4.28-15.62-4.24-24.15l-13.15,16.83c.59,6.23,1.61,11.23,4.95,19.77-4.58,5.33-8.68,11.08-12.25,17.18-5.04-5.9-9.12-13.37-11.86-21.45l-6.95,20.19c2.58,5.69,5.17,10.09,11.1,17.06-2.58,6.49-4.58,13.26-5.97,20.25-6.68-3.94-12.97-9.67-18.19-16.41v21.36c4.19,4.44,8,7.7,15.52,12.2h14.57Z"/>
  <g>
    <path d="M166.45,91.29c5.97-4.37,10.77-7.12,18.32-8.28,3.84-.59,7.47-2.16,11.39-1.68-2.02-1.58-4.03-.46-6.04-.18l-9.85,1.41c-2.13.3-4.04,2.07-6.03,2.82-3.27,1.22-5.6,3.22-8.15,5.54-.89.81-2.65,1.35-3.67,2.06l-6.66,4.69c-.96,1.48-1.89,3.01-2.75,4.57,2.45-2.67,4.53-4.44,7.18-6.38l6.26-4.58Z"/>
    <path d="M205.04,88.65c3,3.97,3.51,3.9,8.38,6.1,1.84.83,3.21,2.59,5.12,3.26-2.33-3.32-9.98-5.88-11.27-7.67l-1.91-2.63c-.98-1.35-2.66-1.88-4.23-2.52,1.17,1.35,2.95,2.17,3.92,3.46Z"/>
    <path d="M226.6,111.27c.78,1.28,1.15,2.66,2.01,3.85.8,1.14,1.39,2.28,1.91,3.36.35-2.1-1.47-3.23-1.95-4.81-.95-3.13-2.43-5.7-4.59-8.25-.34-.85-.7-2.6-1.34-3.16.2,1.03.12,2.77.53,3.44l3.42,5.56Z"/>
    <path d="M164.7,96.11c-2.81,2.68-4.63.78-8.03,4.91,2.36-1.36,3.83-2.16,5.9-2.82,2.77-.88,4.57-3.5,6.51-5.44,1.53-1.53,3.54-2.37,4.92-4.11-2.03,1.05-3.94,2.34-5.54,3.86l-3.77,3.59Z"/>
    <path d="M191.73,84.24c-3.22.27-6.34.35-9.26,1.96l-3.06-.1,3.09,1.02c3.08-1.11,6.3-1.63,9.46-2.23l5.71-1.09c-1.87-.43-3.89.27-5.94.44Z"/>
  </g>
  <g>
    <path d="M187.01,115.65c-1.51-.92-3.08-1.44-4.15.14,1.39-.29,2.34-.13,3.48.59,1.77,1.11,4.64,1.94,5.04,4.28.16.91.24,1.83.46,2.75l.92-.05c-1.25-3.62,2.43-2.76-5.74-7.71Z"/>
    <path d="M181.29,124.02c.86-2.48,3.33-3.85.94-7.67.75,4.23-1.16,5.59-1.91,7.73l.96-.06Z"/>
    <path d="M172.5,124.52c1.11-1.57,1.2-3.25,1.3-5.19.09-1.66-.31-2.58-.98-4.19-1.48-3.5,11.05-2.49,6.66-7.63l1.03-1.75c-.56.07-1.54.86-1.46,1.38l.36,2.28c-1.21.54-2.56,1.1-4.06,1.65-1.54.57-3.98,2.7-3.06,4.53,2.3,4.58.09,6.9-.96,9l1.18-.07Z"/>
    <path d="M196.83,122.93c-.92-1.83-.2-5.4-2.69-6.49l-7.13-3.11c-1.07-.47-2.18-1.46-3.4-1.02-3.04,1.11-4.09,7.92-4.5,8.88l-1.28,3.01.91-.05c.4-.69,1.13-1.62,1.49-4.42.3-2.25,1.14-4.62,2.68-6.15,1.4-1.4,2.35.18,3.59.73l7.43,3.26c2.08.91,1.18,4.04,1.9,5.6l1.09-.06c-.03-.06-.05-.13-.08-.19Z"/>
    <path d="M186.12,117.16c-.49-.24-1.72-.14-1.81.25-.5,2.15,1.41,4.17.35,5.57-.23.31-.45.6-.65.88l1.17-.07c.44-.72.76-1.56.41-2.75l-.98-3.35c2.2.07,4.22,2.9,5.07,5.85l.83-.05c-.54-2.54-1.94-5.1-4.39-6.33Z"/>
    <path d="M187.02,121.25c-.18.4-.55,1.01.53.53.55.4.84,1.07.97,1.82l.53-.03c-.38-2.19-1.55-3.38-2.03-2.32Z"/>
    <path d="M143.94,122.9c-.05-2.52-.72-5.1.1-7.56.63-1.9.62-3.6.8-5.65.27-3.02,1.6-6.56,3.71-8.76l7.06-7.37c8.62-9,5.78-4.48,13.53-9.64,2.49-1.66,5.59-2.41,8.23-3.81,3.21-1.69,6.24-2.02,9.72-2.53,3.04-.45,5.78-1.44,9.11-.65,1.32.32,2.93.58,4.21,1.23l8.06,4.06,6.32,3c-2.68-2.47-5.77-4.35-9.16-5.65l-8.1-3.11c-.87-.33-2.74-.25-3.76-.48-2.54-.56-5.02.74-7.38.77-3.37.05-5.73,1.21-8.69,2.36-4.39,1.7-8.22,3.52-12.19,6-4.84,3.02-9.67,5.89-13.39,10.45l-4.85,5.94c-2.76,3.38-2.98,7.85-3.89,11.78-.71,3.07-.46,5.41-.27,8.4.09,1.53.23,3.01.39,4.47l.7-.04c-.12-1.07-.21-2.14-.23-3.25Z"/>
    <path d="M229.26,98.98c-2.21-2.26-3.92-5.11-6.4-7.17l-6.39-5.33c.78,1.13,1.77,2.61,2.84,3.42,3.5,2.65,5.99,5.83,8.9,8.98,2.42,2.61,3.85,5.14,5.32,8.42.97,2.16,2.57,4,3.11,6.53.51,2.36.66,4.55.39,6.99l.64-.04c.01-.21.03-.42.04-.65.38-6.52-1.06-8.39-3.55-13.81-1.32-2.88-2.65-5.03-4.91-7.34Z"/>
    <path d="M211.61,88.81l-6.53-4.82c-1.07-.79-2.89-1.04-4.4-.96l3.64,1.84,4.23,3.07c5.93,4.31,9.5,6.12,14.35,11.59,2.13,2.4,3.54,4.66,4.94,7.62.76,1.6,4.36,6.41,4.55,8.51.16,1.76.24,3.6.16,5.42l.5-.03c-.09-1.72-.22-3.46-.12-5.2.09-1.63-1.14-3.27-1.87-4.63-1.58-2.95-2.62-6.02-4.35-8.88-1.19-1.97-3.4-3.43-4.86-5.2-2.12-2.56-4.6-4.26-7.66-5.62-.77-.68-1.77-2.1-2.58-2.71Z"/>
    <path d="M187.43,123.67c.08-.53.13-1.04.11-1.5l-.53,1.53.42-.02Z"/>
    <path d="M200.63,119.59c-4.63-4.45-2.82-6.53-10.35-7.63-3.48-2.68-7.56-1.78-10.45,1.29-5.78,6.12-.8,6.19-3.82,9.4-.31.33-.72,1.05-.93,1.72l.91-.05c.27-.6.77-1.26,1.06-1.56,2.89-2.94-1.77-3.26,3.34-8.97,1.1-1.23,2.56-2.33,3.94-2.57,1.86-.32,3.45.84,5.09,1.62,1.91.91,4.66.53,6.14,2.43,1.22,1.57,3.16,3.42,3.95,5.13.35.76.36,1.65.45,2.55l.94-.05-.27-3.31Z"/>
    <path d="M207.07,118.17c-.39-2.15-3.46-2-4.82-2.91-.44-2.67-2.24-5.78-5.39-5.51-1.41.12-2.52.57-3.46-.7-1.85-2.5.82-3.7-.65-4.85-1.92-1.5-3.96,2.16-8.7-.23l-3.52,1.81,3.51-.67c2.13.99,5.09.66,6.93-.4.37-.22,1.49.34,1.3.71-1.12,2.25.26,5.95,3.07,5.91,1.34-.02,2.61-1.09,3.89.09,2.95,2.73.23,4.83,3.21,5.47,1.26.27,2.82.84,3.74,1.59l.31,4.08.92-.05c-.08-1.45-.13-3.12-.35-4.34Z"/>
    <path d="M155.21,125.52l.88-.05c.42-1.88.81-3.81.34-5.63-.72-2.79-1.24-5.43-.19-8.24-1.9-3.28,3.11-8.74,5.44-11.3-1.69.33-2.97,1.69-3.65,3.2l-2.43,3.83c-.4.95-.09,3.07-.35,4.23-1.89,8.29,1.88,6.96.06,13.58-.03.12-.07.26-.1.38Z"/>
    <path d="M222.58,119.74l.13,1.9.59-.03c-.21-.67-.52-1.38-.72-1.87Z"/>
    <path d="M227.65,118.01c-.12-1.21-1.77-2.67-2.24-3.76-1.04-2.4-2.25-4.39-4.4-5.88-5.18-3.59-3.46-11.32-10.44-11.79-3.21-2.2-6.21-7.73-9.39-8.6l-5.65-1.54-4.51.97c-2.55.55-4.81.9-6.89,2.51-3.94,3.03-6.56.68-12.27,3.29-.9.41-1.41,2.33-2.12,2.83-1.2.85-2.61,1.63-3.87,2.36-1.63.47-3.01.93-4.49,1.92l5.33-1.4c1.16-.52,2.81-1.3,3.85-2.01l1.45-2.41c5.55-3.55,7.86-.3,12.76-3.87,2.01-1.46,4.11-1.98,6.64-2.36,1.12-.17,3.12-1.4,4.19-1.11l5.6,1.56c3.75,1.05,5.45,6.42,8.76,8.72.66.28,2.34.55,2.96.87,4.64,3.51,2.66,7.34,7.68,10.92,1.82,1.3,2.84,3.08,3.91,5.03.6,1.08,1.68,2.33,2.38,3.44.47.75.09,2.71.26,3.58,0,.03,0,.07.01.1l.74-.04c-.04-.97-.11-2.06-.24-3.33Z"/>
    <path d="M137.56,123.37l-1.86,3.26,3.61-.21c-.03-.66-.05-1.32-.05-1.99,0-27.95,22.66-50.61,50.61-50.61s48.5,20.63,50.45,46.81l4.51-.26c.42-2.99-3.45-4.44-2.48-9.12.23-1.09.7-1.67,1.84-2.43l-2.35-2.23c-.76-.72-1.59-1.27-2.59-1.71l-.15-3.27c-1.53-1.26-2.4-3.01-2.77-5-.57-.83-2.41-1.63-3.33-2.13-.54-1.36-.59-3.3-.52-4.98-1.49-.45-3.3-.76-4.69-1.56-1.25-.72-.97-3.25-1.55-4.53-1.5-.83-3.83-1.48-5.46-2-2-.65-1.05-5.32-5.3-4.42-1.67.35-2.41-.4-3.44-1.45l-2.83-2.88-4.02.44c-3.47-5.67-6.1.32-11.52-2.59-.97-.52-1.31-1.22-1.87-2.54l-3.02,1.75c-.34.2-1.2.11-1.37.45l-.72,1.44c-.98-.39-2.63-1.22-3.44-.84-6.21,2.96-3.43-1.72-8.58,3.36-1.4.2-3.39-.49-4.87-.93-.91,1.33-1.67,2.85-2.9,3.91-1.03.89-3.24.09-4.64.02-1.35,1.15-2.47,2.82-3.58,4.52-1.18,1.8-5.65-.52-5.98,3.65-.21,2.6-3.29,3.35-6.01,4.62l-.85,4.07c-6.41,1.47-1.67,6.06-6.1,10.17-.84.78-1.61,1.03-2.9.96l.48,3.13c.19,1.26.32,2.01,1.37,3.02-.88.81-2.19,2.05-1.91,3.28,1.17,5.12-2.91,3.15.77,8.84Z"/>
    <path d="M159.4,125.28c.2-1.06.55-2.12.75-3.1,1.21-5.86,4.39-6.74,1.33-9.05-1.31-.99-1-2.16-.69-3.45.85-3.57,3.63-6.03,7.38-6.54,2.65-.36,4.33-1.43,5.79-3.79.81-1.31,3.04-3.14,4.68-3.43,2.75-.48,5.42-.64,8.1-.49,1.34.07,2.92.62,4.08.21l1.64-2.84c4.27-1.75,8.75.02,10.85,4.21.93,1.86,2.27,3.7,4.36,4.14,3.97.83,6.31,3.66,7.51,7.25.69,2.06,1.51,3.95,1.62,6.14.13,2.71,2.18,1.73,5.02,3.07-.78-1.3-2.19-1.7-3.54-2.15-.06-2.89-1.27-5.24-2.23-7.71-1.52-3.9-4.17-6.38-8.47-7.44-3.6-.88-3.29-9.13-12.26-8.56-2.23.14-4.06.38-4.99,2.91-3.63-.95-8.41-.42-11.95.41-1.85.43-3.98,2.36-5.01,3.84-1.24,1.78-2.44,2.78-4.67,3.14-6.23,1.02-8.04,4.38-8.76,10.26l1.72,2.76c-1.48,2.02-2.85,6.72-3.11,10.26l.87-.05Z"/>
    <path d="M218.25,120.83c-.48-1.59-1.42-2.78-2.9-3.67-3.44-2.07,2.49-5.33-3.84-8.47-2.38-6.04-7.36-3.08-9.19-6.73-.07-1.63.11-2.5-1.26-3.47l-3.18-2.26c-2.82-.75-5.7.49-8.1,2.04-5.06,3.27-3.95-.92-7.74-.22-1.03.19-2.05,1.01-3.03,1.95l-2.36,1.03c-3.1,4.4-5.3,3.26-10.17,6.43-2.34,1.52-2.73,3.72-1.48,6.23.57,1.13.21,3.14.13,4.55-.17,3.12-.8,5.21-1.39,6.8l1.31-.08c.84-2.13,1.62-5.33,1.09-10.68l-.38-3.89c-.32-3.24,7.1-3.51,9.77-6.52,1.29-1.46,2.25-2.22,3.91-3.17.83-.48,1.71-1.83,2.55-1.91,1.6-.15,2.5.3,3.71,1.19,2.71,1.99,6.16-3.67,11.54-2.75l4.06,3.04c-.51,1.66.13,3,1.54,3.51l4.89,1.76c3.32,1.19.65,3.11,4.34,4.95,3.48,1.74-1.93,5.79,3.46,8.1,1.25.54,2.03,1.44,2.32,2.68l.16.67.57-.03-.32-1.05Z"/>
    <path d="M210.63,118.91c-1.24-1.98-1.43-3.56-1.19-5.81.26-2.51-2.93-3.87-5.16-3.73-.58-1.19-.93-2.95-2.07-3.49-1.02-.48-2.89-.36-3.97-.54-.23-1.45-.44-3.44-.89-4.64-5.16-2.47-5.69.94-7.85.96-2.16.03-3.82.17-5.95.47-2.25.32-4.94.43-6.38,2.6-3.09,4.69-6.79,3.35-8.93,5.77-1.53,1.73-.85,4.21.02,5.99,1.97,4.01-.73,4.98-1.2,8.35l1.34-.08c.38-1.32,1.34-2.68,1.64-3.87.54-2.15-.64-4.18-1.61-6.05-.76-1.48-.89-3.58.99-4.31.88-.34,2.17-.74,3.15-1,7.34-1.94,3.88-6.57,10.73-6.87l3.85-.17c1.53-.07,2.94.74,4.35-.54,1.21-1.1,3.7-1.75,4.94-.26l.51,4.77c1.74.82,4.22-.46,5.14.41,1.31,1.23.11,4.18,3.01,3.94,1.04-.09,3.42,1.07,3.25,2.24-.38,2.59-.03,4.29,1.2,6.4.84,1.44,1.87,2.34,3.44,2.76l3.06-.18c-.74-1.34-3.23.41-5.44-3.11Z"/>
    <path d="M151.92,119.83l.97-8.98c.2-1.85.27-3.73.33-5.49-.63,3.03-1.1,5.59-1.86,8.42-.46,1.72-.04,3.88-.3,5.62-.31,2.03-.96,4.13-.79,6.4l.41-.02c-.44-3.68,1.2-5.47,1.25-5.95Z"/>
    <path d="M148.58,124.98c-.49-3.08.25-5.71.46-8.78l.43-6.11.78-4.25c-1.12,1.41-1.21,3.12-1.53,5.05l-1.59,9.66c-.28,1.73.28,3.6.61,5.4l.96-.06c-.04-.3-.08-.61-.12-.91Z"/>
  </g>
  <g>
    <path class="cls-2" d="M29.56,134.4c2.23.75,3.34,1.34,3.34,1.79l.43-.07c1.57,1.04,2.69,2.37,3.34,4.02l.89,1.48c.29.05.43.24.43.55,1.63,2.9,2.45,5.76,2.45,8.57.36,1.12.66,2.81.89,5.06l1.87,2.43c-1.46,1.76-2.19,2.84-2.19,3.25l-.14-.03-.14-.17v1.93l.14.61c-.9,5.63-1.68,8.39-2.33,8.27l.14.17v.44c-.27,1.43-1.53,3.27-3.77,5.51-.83.78-2.85,1.2-6.08,1.25l-.46-.26-1.73-.14c-.69-.13-2.43-1.14-5.21-3.05l-.14-.03c0,.25-.73.37-2.19.36-2.67-.5-4.71-2.21-6.11-5.15l.14.03c1.31,1.34,2.42,2.09,3.34,2.26l.14.03c.96.18,1.44-.88,1.44-3.16l.14-.97-.14-1.34.14-.12v-.15l-.4-1.86.4-2.59-.14-.93v-1l.14-.59-.26-1.81.12-.59-.12-.17v-.15l.12-.12v-.12l-.12-.78.26-.68c-.98-1.2-1.75-2.27-2.3-3.21v-.18c1.54-1.26,2.3-2.25,2.3-2.97l-.26-.05v-.18l.26-.36-.26-.93,1.15-.81v-.15l-.14-.03-.6.3-.29-.05-.12-.75v-.15l.12-.56-.12-.49.12.02-.12-.43.12-2.03-.12-.93.26-1.89-.26-1.1.26-.8-.14-.79.14-.12v-.15c-.23-1.21-.66-1.88-1.3-2l-1.15-.21c-.42-.08-1.01.21-1.76.88l-.12-.02v-.15c1.46-2.11,2.77-3.06,3.92-2.85,1.5.28,2.71.9,3.63,1.88.61-.49,1.24-.73,1.87-.71l.46.23v-.15c0-.25.53-.34,1.58-.26.36-.25.75-.33,1.15-.26l.14.03.29.35.89-.13.14.17.14.03,1.44-.03ZM16.62,134.81v.15l.58.11v-.15l-.58-.11ZM17.2,134.48v.29l.17.03.29-.24-.46-.08ZM19.53,161.81v.15c.04.2.28.43.72.69v-.26l-.72-.57ZM19.99,162.89v.18l.4.22v-.32l-.4-.07ZM20.83,162.9l.29.52-.43.07v.15l.14.03.89-.13c0-.21-.3-.43-.89-.63ZM20.83,166.47v.15l.29-.24v-.15l-.29.24ZM21.12,165.62v.18l.17.03.43-.1v-.15l-.14-.03-.46.06ZM21.87,165.46l.26.05.29-.24-.29-.05-.26.25ZM22.01,146.56v.18l.12.02c.33-.23.62-.32.89-.27v-.29c-.67.05-1.01.17-1.01.37ZM22.13,163.75v.15l.29.05v.15l-.14.12v.15l.46.09v-.29l.58.25.29.05v-.15l-1.33-.54-.14-.03ZM23.16,165v.12l.14.03.14-.56c-.19-.04-.29.1-.29.42ZM24.46,162.11l-.14.73.29.05v-.29c.31.06.46-.02.46-.24l-.17-.18-.43-.08ZM25.21,145.4v.62l.14.03v-.62l-.14-.03ZM25.21,165.5v.29l.58.11v-.15l-.58-.25ZM25.5,177.53l-.29.5.29.05.14-.38v-.15l-.14-.03ZM25.93,138.77l.17,1.79-.32.26.14.12v1.67l.17,1.06-.17-.03.17.18v.15c0,.43-.25.87-.75,1.33l.43.08v.44l-.14.12.14.2v3.37l-.14.59.29,1.37-.14.56,2.59,3.47v.15c-.02.19-.45.55-1.3,1.08,0,.49-.48.99-1.44,1.49.31.06.46.18.46.38l-.17,1.43.17,1.41-.32.5.14.94-.14.12.32.35-.17,2.46.17.47-.17.73.17.88-.32,2.93.14.17v.15l-.14.41.14.73-.14.12.32.38-.17.7c0,.39.29.69.86.89l.14-.12.14.03.6.26c2.02.16,3.02-.04,3.02-.61.52.1,1.05-1.23,1.58-3.98l.14.03-.14-1.49.14-.74-.14-.76c.08-1.24.23-1.95.46-2.14v-.12c-.31-.06-.46-.18-.46-.38l.14-3.96c0-.96-.28-1.75-.84-2.38l.14-.12v-.29c-.4-.08-.6-.37-.6-.87l-.14.12-.14-.03-.75-.84v-.15c.94-.78,1.78-1.72,2.51-2.82l.14.03c-.31-1.27-.46-2.43-.46-3.48l.14.03-.14-.17v-5.04c0-2.07-.58-3.5-1.73-4.31-.5-.35-1.36-.69-2.59-1.04l-.6.03-.14-.17v-.15l-1.3.05ZM33.48,142.07v.18l.32.06.4-.1v-.15l-.26-.05-.46.06ZM34.2,169.68l.43.52.14.03v-.29l-.58-.25ZM34.77,141.43v.29l.6-.18v-.15l-.14-.03-.46.06ZM35.38,170.49v.15l.72.28c0-.2-.14-.32-.43-.37l-.29-.05ZM37.85,171.86v.26l.55.1v-.15l-.55-.22Z"/>
    <path class="cls-2" d="M70.71,140.19c2.27.22,4.39,1.37,6.36,3.45,1.98,2.49,2.97,4.77,2.97,6.82-.06.99-.16,1.48-.29,1.47l.29.61c0,2.34-.79,4.51-2.36,6.48-.25-.02-.94.65-2.07,2.03v.29c2.33,1.22,3.67,2.34,4,3.37l.29.61-.15.46h.15c.29.04.44.6.44,1.7v.59l-.15.87.15.19-.15,1.01.15,1.65-.29.56.15.48-.29,1.91c.29,1.04.53,2.94.73,5.69.62.76,1.17,1.17,1.63,1.21h.15c.37.05.77-.11,1.2-.46h.15v.16c0,.51-.15.79-.44.84l-.44-.04-.9-.23h-.15s0,.13,0,.13l1.49.43c-.58,1.37-2.31,2.49-5.19,3.37l-.58.12-.47-.04c-1.15-.11-2.13-.91-2.95-2.39-.43-.04-1.07-.84-1.92-2.41l.15-.13v-.15l-.15-.92.44.22h.15s0-.16,0-.16c-.19-.02-.29-.17-.29-.47l-.44-.48.15-.43-.15-.6.29-1.91-.29-.32v-.91l.29-.27-.15-1.07.15-.43-.15-.89v-.47l.15-.57-.15-.6v-.15l.15-1.19-.15-1.21.15-.13v-.15c-.23-.02-.38-.68-.44-1.98,0-.78-1.33-1.36-4-1.73l-1.93-.18v5.07l-.17,2.83.17.75-.17.13.17.78v1.17l-.32.26.32,1.08-.17.13.17.16-.17.13h-.15s.32,1.51.32,1.51l-.17.13v.15l.17.6-.17.42c.72,1.57,1.52,2.4,2.39,2.48.47.04,1.01-.21,1.63-.75h.15v.16c-.37.9-.87,1.5-1.49,1.79-.74,1.43-1.73,2.09-2.97,1.97-1.32-.28-2.56-1.05-3.7-2.31-.89,1.01-1.73,1.48-2.51,1.4l-.29-.03c-1.52-.14-3.3-1.6-5.34-4.38v-.15l2.22.8.9-.06.44.19-.15-.16v-.15c.21.02.51-.55.88-1.7-.19-.02-.29-.17-.29-.47l.15-.13-.15-.75v-.29l.15-1.19-.15-.89.15-.46-.15-.89v-.73l.15-.16-.15-.16v-4.6l.29-.41-.29-3.46.15-.46-2.22-2.58-.15-.16v-.15c1.57-1.67,2.36-2.83,2.36-3.5l.15-1.04-.15-.16v-.29l.15-.57-.29-.94v-.15l.29-.26-.29-1.08.15-.72-.15-1.36v-1.32l.15-.75-.15-1.04.29-3.55c-.66-.77-1.3-1.18-1.92-1.24l-2.36.98v-.15c1.13-1.55,2.46-2.52,4-2.9.25-.39.89-.53,1.92-.43.68.2,1.47.82,2.36,1.87,2.27-1.27,3.86-1.86,4.75-1.77h.15s.15.17.15.17l3.7.06ZM59.89,161.33c0,.27-.59.47-1.78.59v.15l.47.04c.84-.33,1.48-.47,1.92-.43v-.29l-.15.13-.17-.02-.15-.16h-.15ZM58.58,161.21v.15l.73.07v-.15l-.73-.07ZM59.02,155.89v.29l.58.38v-.15l-.58-.52ZM62.58,161v.29l.73-.08v-.15l-.73-.07ZM63.31,141.56v.15l.76.07v-.15l-.76-.07ZM67.59,144.52c0,.29-.1.43-.29.41l-.15-.16-.73.08-.44-.04v1.49l-.17.57.17.16v.15l-.17,1.18.17,2.1-.17.86.17,1.22v1.05l-.32.41.32.91-.17,1.04.17.6-.17.6c0,.88.3,1.35.9,1.4l2.07.34c1.98-.36,2.98-1.25,2.98-2.68,0-.8.24-1.18.73-1.13v-.15c-.39-.04-.58-.2-.58-.5v-2.99l.29-.26c-.37-3.41-.87-5.15-1.49-5.21,0-.35-.74-.71-2.22-1.09v-.15l-.15.13-.61-.06v-.29h-.15ZM66.14,141.83v.15l.73.22h.15s0-.13,0-.13l-.73-.22h-.15ZM66.14,160.29v.15l.44.04,1.02-.2v-.15l-.44-.04-1.02.2ZM66.28,162.7v.29l.44.04v-.15l-.44-.19ZM67.3,142.23v.15l.76.22.44.04v-.29h-.15s-.61.07-.61.07l-.15-.16-.29-.03ZM68.5,159.78l.15.16v.15l.58-.09v-.29l-.73.08ZM68.94,160.41v.15l.76.07v-.15l-.76-.07ZM69.52,142.91v.15l.61.21v-.29l-.61-.06ZM70.13,159.35v.29l.73-.22v-.15l-.29-.03-.44.1ZM71.44,143.39v.15l1.05.25.29.03v-.15l-.88-.23-.47-.04ZM71.91,158.61v.29l.44-.1v-.15l-.44-.04ZM72.06,161.32v.15l.73.22.29.03v-.15l-.88-.23h-.15ZM73.08,143.84v.15l.61.06v-.15l-.61-.06ZM73.54,161.75c0,.2.15.31.44.33h.15s0-.13,0-.13l-.58-.2ZM73.83,158.06v.15l.44.04.15-.13v-.15h-.15s-.44.09-.44.09ZM73.98,144.22v.15l1.02.24.76.07v-.15l-1.63-.3h-.15ZM74.71,180.32v.15l1.63.59.44.04c0-.14-.64-.39-1.93-.77h-.15ZM75.32,162.51v.15l.58.2.29.03v-.15l-.73-.22h-.15ZM76.05,144.71v.15l.88.23.32.03v-.15l-.9-.23-.29-.03ZM76.05,157.07v.15l.29.03.58-.38h-.15s-.73.21-.73.21ZM77.25,181l-.17.13v.15l1.34.13v-.15l-1.17-.26ZM77.68,163.64v.29l.58.06v-.15l-.58-.2ZM79.76,181.53c0,.19.15.31.44.33h.15s0-.13,0-.13l-.58-.2Z"/>
    <path class="cls-2" d="M119.2,141.68h.15c0,.2.16.29.47.29l.15,4.13c0,.72-.3,1.32-.91,1.79l.15-.18h.15s.18.17.18.17h.15v-.47l.29.29-.15,1.2.15,3.69v2.52c0,.8-.21,1.2-.62,1.2l-1.14-.14-.62.15-1.17-.14-1.2.15-.15-1.35.15-1.76-.15-.62.47-.85c-.31-.1-.47-.4-.47-.91l.15-1.05c0-.9-1.13-1.83-3.4-2.78l-.88-.15c-2.03,0-3.31.4-3.84,1.18h-.15c-.2,3.95-.4,6.16-.62,6.65.23,0,.39.35.47,1.05l-.29,1.61.29.29-.15.15.15.15v.15l-.15.88c0,1.19.33,1.79,1,1.79l1.2-.44,1.64.29c.88-.25,1.32-1.05,1.32-2.38,0-.57-.34-1.11-1.03-1.64v-.26h.15c1.97.52,2.96,1.4,2.96,2.63l.18.58v.15c0,1.37-.3,2.36-.91,2.99,0,.47.19.7.59.7l.41,1.96c-.47,2.05-1.49,3.08-3.08,3.08l-.76.15v-.15c.92-.92,1.38-1.66,1.38-2.23,0-.23-.56-.43-1.67-.58h-.44s-1.03.15-1.03.15l-.15-.15v-.12c-1.27.08-1.9.36-1.9.85l.29.61-.15,3.08.15.15v.15l-.29,1.2v.47h.29s0,.85,0,.85l-.29.91.15.15v.15l-.15,1.03.15,1.64h-.15s.44,1.32.44,1.32l-.29.32.15.44-.15.15v.15l.29.7-.29.29c.37.45.56.94.56,1.46l2.11.61c1.72,0,3.63-.89,5.74-2.67l.15-1.61-.15-.15v-.15l.15-1.76-.15-.18v-.15l.29-.88-.29-1.17.29-.29-.29-.47v-.41l.15-.15v-.15l1.61.29.47-.29,1.49.14h.88s.15.15.15.15h.15s-.29.88-.29.88v.15l.29,1.2v.41l-.29,1.2.29.85v.47c-.2.39-.5.59-.91.59v.32l.76-.47.15,1.05v.56c-.06,1.07-1.69,3-4.89,5.78-2.46,1.19-4.04,1.79-4.75,1.79l-.15-.18-.7.18h-.62c-2.52,0-4.55-.73-6.09-2.22-.72.7-1.26,1.06-1.61,1.06h-.73c-1.45,0-3.12-.79-5.01-2.37l-.29-.29-.47-.61.15-.15c.94.6,1.58.91,1.93.91h.76c.86-.41,1.29-1.07,1.29-1.97l-.15-.56.32-.29-.32-.76.15-1-.15-1.2.32-.29-.47-.47.15-1.9-.15-.41.15-1.35v-.62l.15-.15-.29-.56.15-2.37v-.62l-.15-.88.29-.59c-.2,0-.29-.15-.29-.44l.15-1.05-.29-.29h.29v-.12c-.55,0-1.04-.55-1.46-1.64l.32-.32-.18-.15h-1.05s0-.15,0-.15l2.23-2.79v-1.49l.15-.88-.15-.44.29-1.76c-.2,0-.29-.16-.29-.47l.15-2.05-.15-.15v-.15l.29-1.17-.29-.61.15-1.05c-.08-2.66-.18-3.98-.29-3.98l-2.37-.73-1.46,1.06h-.15v-.15c0-1.27,1.47-2.55,4.42-3.84h1.38c.84,0,1.62.44,2.34,1.31,2.19-1.29,3.67-1.94,4.45-1.94l2.08.14,1.61-.3c0,.25.63.41,1.9.47l4.13,1.75c.57,0,1.41-.79,2.52-2.38ZM99.25,162.57l-.15.15v.15h.15l.44-.15v-.15h-.44ZM99.25,164.91v.18h.44v-.32l-.44.15ZM99.69,144.99l-.15.41v.15h.15l.32-.29v-.12l.15.12h.56v-.12l-.7-.15-.18.15-.15-.15ZM102.21,161.22c-.18.39-.53.59-1.05.59v.29l1.46-.73v-.15h-.41ZM101.15,163.42h.15l.62-.26v-.15h-.15c-.41.16-.62.29-.62.41ZM103.53,160.48v.29l.47-.15v-.29l-.47.15ZM104.14,160.19l.29.29h.56s-.26-.29-.26-.29h-.59ZM104.99,159.43v.15h.47v-.29l-.47.15ZM105.29,143.02c0,.2.16.29.47.29h.15v-.15l-.62-.15ZM105.46,158.58v.15l.29.26.29-.26-.44-.15h-.15ZM107.1,185.91v.12l.7-.44v-.15h-.15l-.56.47ZM108.13,144.51l.29.29h.15l-.29-.29h-.15ZM108.13,185.29h.15l.29-.29h-.15l-.29.29ZM110.03,184.09h.15l.32-.29h-.18l-.29.29ZM110.79,145.68v.15l.91.29h.12v-.15l-.88-.29h-.15ZM112.11,182.33v.15h.15l.91-.29v-.29l-1.05.44ZM112.4,161.2v.15l.62-.73v-.15l-.62.73ZM113.46,181.88h.15l.29-.32h-.15l-.29.32ZM114.07,147.72l.7.61v-.29l-.62-.32h-.09ZM114.63,181.15h.15l.44-.44h-.15l-.44.44ZM115.83,151.3h.15s.29-.29.29-.29h-.15l-.29.29ZM116.13,180.24h.15l.26-.29h-.12l-.29.29ZM117.3,179.21v.29l.44-.15v-.15h-.44ZM118.35,178.51l-.29.29v.15h.29l.29-.44h-.29ZM118.21,151.61c0,.2.44.43,1.32.7h.15v-.15l-1.46-.55ZM118.79,148.19v.44h.26v-.44h-.26Z"/>
    <path class="cls-2" d="M170.65,137.16l1.72,1.22c.93-1.04,1.65-1.59,2.15-1.65,1.03-.11,1.97.56,2.82,2.03l-.17.2v.15l.32.58-.15.19-.17-.16-1.22.14c-1.05.51-1.57,1.56-1.57,3.16-.49.93-.95,2.65-1.4,5.17v1.08l-.79,1.82.32.29v.15l-.47.52.15.16-.61,2.56.15.63-.15.63c1.24,1.31,1.86,2.23,1.86,2.78-2.39,2.1-3.58,3.95-3.58,5.55l-.47,1.46.15.16v.15c-.04.32-.29.71-.76,1.17l.47-.05-1.57,6.77.17.45-.32,1.44-.17.02-.15-.16-.15.02v.18l.15.13v.15l-.15.95c0,1.68.57,2.46,1.72,2.33l1.22-.46.17-.02.29.29c-2.31,2.13-4.44,3.3-6.38,3.52l-.15.02-1.25-.33c0,.21-.62.5-1.86.85-1.46-.19-2.18-.53-2.18-1.02l-.93.1c-.62-.32-1.3-.87-2.04-1.65l.17-.2.47-.05.47.27c1.03-.66,1.54-1.56,1.54-2.69l-.93-4.73.17-.17v-.18l-.64-1.01v-1.58l-.15-.13v-.15l.32-.36c-.41.04-.67-.6-.79-1.93l.15-.19c-.25.03-.51-1.3-.79-3.99-.23.03-.49-1.24-.76-3.81l-.32.04c0,.92-.2,1.61-.61,2.09v.79c0,1.04-.26,1.74-.79,2.11l.47.12c-.37,2.11-.73,3.61-1.08,4.48l.15.92-.64.25v.29l.32-.04v.64l-.15.16.15.16v.15c-.58,3.5-1.1,5.28-1.54,5.33l.29,1.52-.15.19v.15c.35,1.41.66,2.1.93,2.09l.15-.02,1.25-.46.17.16c-1.48,2.25-3.09,3.48-4.83,3.67l-.15-.63-.17.02c0,.31-.26.56-.79.73l-1.4-.81-.76.88-.64-.08-.15.16-.15.02c-1.59.18-3.05-.24-4.37-1.24-1.05-.18-1.57-.59-1.57-1.23l.47-.05c.74-.04,1.11.02,1.11.2l.93-.43.47-.05c.06-.61.21-1.1.47-1.46v-.15l-.15-.92.15-.81c-.31.03-.47-.57-.47-1.82l.32-.33c-.29.03-.66-1.23-1.11-3.8-.31-.2-.47-.45-.47-.74l.15-.16v-.18l-.47-1.18.17-.2c-.21.02-.37-.37-.47-1.18l.15-.51-.32-.26.17-.49c-.21.02-.52-.83-.93-2.56-1.22-.84-2.26-1.72-3.12-2.64v-.15l1.86-2.55v-.47l-.15-1.1.29-.03v-.15l-1.4-5.03.32-.33c-.25.03-.72-1.49-1.4-4.56v-.47l.29-.03v-.15c-.33.04-.89-.74-1.69-2.33l-.93.1-.64.25-.15-.16-.79.26-.15.02-.17-.16-.15.02c1.26-2.42,2.72-3.73,4.37-3.91,0-.14.36-.28,1.08-.44.37-.04,1.3.28,2.8.95.5-.6,1.23-1.21,2.18-1.82l.64-.07c1.2.1,2.4.6,3.58,1.51l1.54,2-.15.19-1.11.12v-.32l-.15.02-.15.16-.17.02-.61-.08c-.31.35-.68.54-1.11.59l-.29,1.12.47,2v1.08c.31.4.88,2.84,1.72,7.34l-.17.02-.15-.13-.15.02v.15l.47,1.21v1.55c.29-.03.6.93.93,2.88l-.17.02c.43.71.89,2.6,1.4,5.65l.17-.02c.52-1.54.79-2.72.79-3.54.21-2.64.57-3.99,1.08-4.05l.15-.02v-.15l-.29-.44c.48-3.39.89-5.11,1.22-5.15v-.47c0-.82.37-2.01,1.11-3.58l-.32-.26.32-.36v-1.41c.31-3.02.57-4.62.79-4.8l.61.25,4.51-.82,1.72-.02.47-.23.32.43v2.37l.15.92-.15.49v.15l.15-.02v-.32l.32-.04v.18l-.17.17.17.13v1.26c.33.39.74,2.7,1.22,6.92l1.86,10.28.17-.02c.37-3.28.88-4.96,1.54-5.04l-.15-.13v-.62l.15-.81-.29.03v-.47c0-.21.15-.34.47-.37v-.32l-.32.04c.93-6.16,1.66-9.63,2.18-10.41l-.17-.77v-.32c0-.25.21-.43.64-.54v-.15c-.31.03-.47-.06-.47-.27.52-2.01.79-3.34.79-3.98v-.32l-.17-.13v-.18l-.15.19-.15.02-.49-.12c0,.18-.31.43-.93.75v-.32c0-1.29,1.19-2.62,3.58-4l.64-.07ZM136.55,147.69v.15l.79-.09v-.15l-.79.09ZM137.81,147.87v.15l.61-.07v-.15l-.61.07ZM141.53,148.07v.15l.61.11c0-.21-.16-.31-.47-.27l-.15.02ZM141.53,171.57v.15l.15-.02.79-.23-.15-.13v-.18l-.79.41ZM141.85,169.98v.15l.47.09.15-.02v-.15l-.47-.09-.15.02ZM142.32,148.13c0,.21.16.3.47.27l.15-.02v-.15l-.61-.11ZM142.61,170.04v.32l.93.04v.47l-.29.03v.15l.15-.02,1.25-.75v-.15l-.32.04-.47.2-1.25-.33ZM146.66,169.59l-.93.1v.32l-.29.03-.17-.16-.15.02-.32.5,2.97-.95-.17-.13v-.18l-.93.43ZM148.84,169.03l.17-.02.29-.33-.15.02-.32.33ZM149.95,168.44l.15-.02.32-.33-.17.02-.29.33ZM150.24,160.91c0,.2.16.28.47.24l.32-.04v-.15l-.79-.06ZM151.64,161.22v.15l.96.21.15-.02v-.18l-.79-.21-.32.04ZM155.22,149.07v.15l.47.09.17-.02v-.15l-.47-.09-.17.02ZM156.65,162.36v.18l.61.08c0-.21-.16-.31-.47-.27l-.15.02ZM157.11,149.01l-.32.36.15.6.32-.04c0-.31.15-.49.47-.52v-.15l-.61-.25ZM158.33,162.82v.15l1.72.28.17-.02v-.15l-1.72-.28-.17.02ZM158.33,181.74v.18l.47-.05v-.32l-.47.2ZM158.8,149.44c0,.21.16.3.47.27l.17-.02v-.15l-.64-.1ZM158.98,181.67l.15-.02.32-.33-.17.02-.29.33ZM159.12,148.79l.15-.02.32-.36-.15.02-.32.36ZM159.44,180.54l.15-.02.32-.36-.17.02-.29.35ZM159.73,180.97l.17-.02.32-.36-.17.02-.32.36ZM160.05,149.77l.32.61.47-.52-.79-.09ZM162.85,178.75l.17-.02.47-.52-.17.02-.47.52ZM165.5,176.73c0,.21-.16.34-.47.37l-.15.16v.15l.15-.02.93-.57v-.15l-.47.05ZM165.35,163.59l.15.45.17-.02v-.47l-.32.04ZM165.5,175.03l.17-.02.29-.35-.15.02-.32.36ZM165.96,163.7v.29l.64.1.15-.02v-.18l-.61-.23-.17.02ZM167.68,164.12l.32.29.15-.02-.29-.29-.17.02ZM167.86,151.1c0,.21.16.3.47.27l.47-.05v-.15l-.93-.07ZM168.61,164.34v.15l.64.08c0-.2-.16-.28-.47-.24l-.17.02ZM170.19,151.48v.29l.61.11-.61-.4ZM170.65,144.69v.29l.47-.2v-.15l-.47.05Z"/>
    <path class="cls-2" d="M194.51,133.13l.29.25.32-.34.75.35v-.18c1.99.64,3.04,1.14,3.15,1.49.56-.09.96.2,1.21.86.29-.05.44.14.44.55.64-.1,1.14.58,1.5,2.05l-.14.49.14-.17.14-.02c.62.59,1.68,3.56,3.18,8.93l.75,1.87-.17.17v.15c.41.48,1.11,2.51,2.11,6.08l.14-.02.32-3.71-.14-.59v-.62l.29-.34-.29-.57.14-.79-.14-1.21.14-.17v-.15l-.32-.86.46-.54-.46.07v-2.43c0-1.19.11-2.02.32-2.48l-.32-1.33.17-.17-.17-.73.17-.79-.17-.73.17-.5c-.21-1.9-.87-2.76-1.97-2.59-.39.06-1.14.54-2.26,1.44l-.15-.15v-.15c1.29-1.83,2.5-2.98,3.62-3.47,0-.2.14-.32.44-.36l.46.07v-.15l.43-.54.61-.1c.68-.11,1.33.15,1.97.77.7-.71,1.29-1.11,1.79-1.19l.61.05.9-.29,2.43.82-.17.5.17-.17.14-.02c.98.82,1.53,1.44,1.65,1.85l-.14.2-.14.02c-.44-.55-1.3-.73-2.57-.53-1,.16-1.51,1.21-1.51,3.14l-.14.02.14.74v1.67c0,.21-.14.34-.43.39l.43.69-.43.51v.18l.43.08v.29l-.14.02.14,1.06v2.43c0,.72-.1,1.29-.29,1.72l.14.12v.18l-.14.17v.15l.14.59-.14.17.14.45c.19-.03.29.35.29,1.16.71.12,1.07.43,1.07.92v.29l.43-.36.75.79v.29c-1.79,2.32-2.69,3.83-2.69,4.56l.29.25-.29.51.14.12.14-.02-.14.78v.29l.14.59-.14.17v.15l.14.15v.15l-.14.17v.15l.14.45-.14.17v.15l.14.12v.18l-.14.17v.15l.14.12v.15l-.14.49.14.89-.29.37v.44l.29.42v.29l-.14.64.14.59-.29.95.29.28v.15l-.14.17.14.12v.32l-.14.17.14.12v.62l-.29.34.29,1.01-.14.17c.08,1,.42,1.87,1.04,2.59l1.82-.29,1.36-1.45.14.12c-.77,2.04-1.88,3.43-3.33,4.19l-2.26,1.29-.43.07c-2.91.46-4.37.43-4.37-.1l-.9-.15c-1.14-.56-2.14-2.43-3.01-5.62l.14-.17.14-.02v-.29c-.5.08-.75-.18-.75-.79l.14-.49-.29-.25.29-.51c-.41.06-.61-.36-.61-1.28l-.15.2-.14.02-.29-.89.29-.34c-.33.05-.53-.22-.61-.81l-.14.02.14-1.11v-.29c-.54.08-.89-.62-1.04-2.12-.6-.57-1.4-2.83-2.4-6.8-.38-.45-.69-1.21-.93-2.29l-.14.02v3.81l-.29.51.29,1.01-.29,1.42.29.86v.47l-.14,2.92.14.12v.15l-.14.17v.15l.14,2.12v.76c0,.21-.14.34-.43.39l.43.55-.14.61.14,1.5-.14.96c0,1.68.75,2.87,2.26,3.57l.14-.02v-.29l.46-.07c.33-.05.67-.26,1.04-.63l.14-.02.32.27c-1.16,1.39-2.16,2.16-3.01,2.29-.77.73-1.57,1.16-2.4,1.29-.69.11-1.4-.03-2.11-.43l-1.5.85-.61.1c-.21.03-.32-.11-.32-.42l-.14.02-.43.39c-.35-.3-1.1-.48-2.26-.55l-1.97-1.39v-.15l.29-.05,1.22.13.46-.07.75-.29.29.28.14-.02-.14-.12v-.18l1.36-1.74-.32-1,.32-.78-.32-1.47.17-.79-.17-.44.17-.17-.17-.73v-1.23l.17-.64-.17-.59.17-1.7-.17-1.94v-.47l.17-.94-.17-.73v-.32l.17-.17c0-1.11-.56-1.99-1.68-2.63l-.58-.82v-.44c1.5-1.64,2.26-2.98,2.26-4.02l-.17-1.64v-2.29l.17-1.4-.17-1.06c0-.88.45-1.56,1.36-2.03v-.15l-.14.02-.9.73-.32-.24v-1.82l.32-.05-.14-.59.14-.49c-.23.04-.39-.54-.46-1.74l-1.19-.72-.61.1c-.58.09-1.13.38-1.65.85l-.32.05v-.15c1.79-2.1,2.85-3.18,3.15-3.22l1.36-.98c.27-.26.93-.52,1.97-.78ZM193.15,142.78l.14-.02.32-.34-.17.03-.29.34ZM193.9,141.46v.15l.14.45.14-.02v-.47l-.14-.12-.14.02ZM194.65,141.02v.18l.14.42.15-.02v-.15l-.15-.45-.14.02ZM194.65,167.39l.14-.02.32-.34-.17.03-.29.34ZM195.73,166.16v.44l.29-.05.61-.68-.14-.15.14-.17-.9.61ZM202.93,161.98v.29l.46-.22v-.29l-.46.22ZM204.44,160.98l.14-.02.46-.22v-.32l-.61.56ZM205.79,159.85c0,.2-.15.32-.46.37l-.14.17v.15l.14-.02.61-.68-.14.02ZM207.15,158.87l-.14.17v.15l.14-.02.44-.21v-.15l-.44.07ZM209.56,156.8l-1.5,1.47v.15c1.1-.84,1.65-1.38,1.65-1.64l-.14.02ZM208.8,134.21c0,.23.25.35.75.35,0-.23-.25-.35-.75-.35ZM210.92,135.11v.29l.9.18.14-.02v-.15l-1.04-.3ZM210.92,155.67l.14-.02.32-.34-.17.03-.29.34ZM212.42,135.78l.29.28.32-.05v-.32l-.61.1ZM212.71,156.15l-.14.17v.18l.9-.32v-.15l-.75.12ZM212.71,153.86v.32l.46-.25v-.15l-.46.07ZM213.64,152.81l.14-.02.29-.34-.14.02-.29.34ZM214.53,150.85l-.14.46v.32l.14-.02.14-.64v-.15l-.14.02ZM214.68,152.18v.18l.61-.1v-.18l-.61.1ZM215.72,150.19l-.29.34-.46.69.17-.03.75-.88v-.15l-.17.03Z"/>
    <path class="cls-2" d="M236.18,126.99c.58-.07,1.36.3,2.33,1.12.64-.92,1.26-1.42,1.86-1.49,3.33-.41,5.49.62,6.46,3.1l-2.15-.35c-1.43.29-2.15.79-2.15,1.5l.15,4.02v.94l-.15,1.25.15,1.21-.15,1.1.15,1.39v3.57l2.47,2.8v.32c-.72,1.12-1.29,1.71-1.72,1.77l.17.12v.15c-.62.62-.98,1.39-1.08,2.3l.15,2.94v2.64l-.32.04v1.41l.17.92-.17.17v.15l.32,1.83-.15,3.56.15.45-.15.63c1.07,1.12,1.78,1.65,2.15,1.61.6-.07,1.27-.42,2.01-1.04l.15-.02c0,1.17-1.13,2.25-3.4,3.23l-.15-.16-.15.02c-.89.85-1.61,1.31-2.15,1.38-1.07.13-1.94-.18-2.62-.94,0,.45-.87.82-2.62,1.12-2.52-.14-4.27-.7-5.26-1.69l-.76-.84.15-.16,1.86.71c1.65-.69,2.47-1.58,2.47-2.65l-.17-.12v-.94l.32-.51-.32-1.19.17-.17-.17-1.82v-.32c0-3.18.11-5.37.32-6.57l-.32-.87.17-.96-.17-1.53v-.47l-2.3-2.67c1.65-2.23,2.47-3.68,2.47-4.35l.15-2.8-.32-1.37v-.44l.47-4.28c-.35.04-.55-.91-.61-2.85l.14-.49c0-.92-.77-1.45-2.3-1.59l-.15.02c-.64.08-1.21.41-1.71,1v-.32c.97-1.8,2.67-3.25,5.09-4.35l1.22-.15ZM234.96,131.48c0,.22.16.3.47.26l.14-.02v-.15l-.61-.1ZM234.96,151.99v.15l.32-.04.46-.67v-.15l-.64.69-.15.02ZM235.74,150.95v.15l.29-.04.46-.67v-.15c-.16.02-.31.24-.46.67l-.29.04ZM236.82,152.05v.18l.61-.08v-.32l-.61.22ZM237.11,148.91l-.14.49.32-.04v-.47l-.17.02ZM237.89,147.58l-.32.66v.32l.15-.02.32-.83v-.15l-.15.02ZM237.72,130.84v.15l1.1-.28v-.18l-.64.08-.46.23ZM238.51,163.97v.15l.61.07c0-.19-.16-.27-.47-.24l-.14.02ZM238.82,162.85v.29l.44-.05v-.15l-.44-.09ZM239.12,145.56l-.15.49.29-.04v-.47l-.15.02ZM239.12,130.35l.32.28.15-.02v-.32l-.46.06ZM239.44,144.9l-.17.49.32-.04.15-.49-.29.04ZM239.73,163.2v.15l.64.07.15-.02v-.15l-.61-.07-.17.02ZM239.9,144.08v.15l.29-.36v-.15l-.29.36ZM240.05,129.94v.29l.61-.22v-.15l-.61.08ZM240.05,149.34v.15l.47-.53-.15.02-.32.36ZM240.05,164.54v.29l.61.1-.61-.39ZM240.66,142.58l-.15.49v.15l.15-.02.32-.65-.32.04ZM240.98,141.6v.32l.47-.2v-.32l-.47.2ZM240.98,163.49v.32l.76-.09.15.13.17-.02v-.29l-.79.1-.15-.16-.15.02Z"/>
    <path class="cls-2" d="M279.44,123.63l.44-.02c1.05-.05,2.2.94,3.42,2.95l.35,1.07h-.21c-.53-.81-1.3-1.19-2.31-1.15-.53.02-.95.36-1.26.99l.64,3.4c-.2,0-.29.17-.29.48l-.15-.17h-.21v.8h.21s.15-.63.15-.63h.29c.86,7.6,1.74,11.39,2.63,11.35l.29.92c.35-.02.99.42,1.9,1.29v.18c-.86,1.05-1.49,2.02-1.9,2.9l2.84,16.34c.31.81.77,1.2,1.38,1.17l.47-.02c.59-.03,1.21-.46,1.87-1.32l.15.14c-1.79,2.56-3.5,3.88-5.12,3.95l-1.87-1h-.29c-1.25.89-2.13,1.34-2.63,1.36l-.64.03c-1.44.07-2.78-.92-4.01-2.95h.15c1.13.47,2.01.69,2.63.67.62-.09.94-.51.94-1.27l-.44-2.47.88-.65h-.15s-.73.36-.73.36l-.21-.17v-1.85c-.51.02-.87-1.51-1.08-4.61l-.15-.14v-.15l-1.55.07-1.7-.07-.47.17-2.19-.4c0,.25-.41.44-1.23.55-.61,3.48-1.17,6.04-1.7,7.67l-.15,2.32c.19.62.6.91,1.23.88.49-.02,1-.26,1.55-.71v.35c-.43.98-1.45,1.95-3.07,2.92l-.64.03c-.86.04-1.74-.38-2.63-1.26h-.15c-.92.87-1.75,1.32-2.49,1.35l-.64.03c-2.48-.51-3.72-1.45-3.72-2.82.68.4,1.36.58,2.02.55,1.15-.05,1.98-1.02,2.49-2.89h.15s-.15-.18-.15-.18v-.47l1.41-3.9-.18-.14v-.35l.61-2.66-.15-.14,1.38-5.01-.15-.17v-.15c.18-.22.34-.95.5-2.19-.27-.75-.9-1.66-1.87-2.73.18-.48.95-1.29,2.31-2.45l1.11-1.6c0-.92.51-1.61,1.52-2.09v-.15l-.44-.13c-.08.53-.24.8-.5.81h-.15s0-.34,0-.34c1.35-5.04,2.02-8.12,2.02-9.23l.32-1.25c0-1.46-.57-2.17-1.7-2.12l-1.41.68v-.15c1.23-2.11,2.37-3.18,3.42-3.23,0-.23.25-.36.76-.39v.18l.15-.18.35-.02v.35h.29v-.36c1.31-.06,2.64.55,4.01,1.84,1.31-1.7,2.45-2.57,3.42-2.62ZM264.72,158.63l-.15.15v.15h.15s.44-.17.44-.17v-.15l-.44.02ZM265.63,158.44v.15h.17s.59-.18.59-.18v-.18h-.29s-.47.21-.47.21ZM266.71,158.07v.32l.47-.2v-.15l-.47.02ZM269.66,139.27v.47l.62-.5v-.15l-.62.17ZM271.07,127.26v.15h.15s.64-.65.64-.65h-.15c-.43.2-.64.37-.64.5ZM271.07,138.45v.29l2.63-1.67v-.15h-.32s-2.31,1.52-2.31,1.52ZM274.49,136.89c-.23,1.87-.6,2.81-1.11,2.83l.15.14-.44,2.36.15.46c-.53,1.25-1.15,3.51-1.87,6.76l-.15.18c.33-.01.5.13.5.45l.15.14h.15s.58-.18.58-.18l3.13.15c0-.2.31-.31.94-.34l-.94-6.81.15-.48c-.82-2.54-1.23-4.44-1.23-5.69h-.15ZM272.3,125.62v.21h.15s.5-.23.5-.23v-.15h-.21s-.44.18-.44.18ZM274.49,136.1l-.32.66h.32s.15-.52.15-.52v-.15h-.15ZM274.79,136.44h.15c.47-.24.73-.47.79-.69v-.15c-.62.34-.94.62-.94.83ZM276.16,136.52l.5.42.91-.19v.29l.5-.02c0-.29-.26-.43-.79-.4v-.15l-.18.15h-.15s-.79-.1-.79-.1ZM276.81,135.08h.15s.61-.36.61-.36v-.32h-.15s-.61.68-.61.68ZM277.89,133.95v.29c.47-.16,1.08-.64,1.84-1.46h-.15c-.43.14-.89.53-1.38,1.15h-.32ZM278.36,137.01l.5.48.15-.15v-.21l-.64-.12ZM279.44,137.6l.44.45v-.18l-.29-.28h-.15ZM280.08,161.48l-.21.48.35-.02v-.47h-.15ZM280.23,138.18v.15l.61.15c0-.21-.16-.31-.47-.3h-.15ZM280.52,161.31v.15h.32v-.45l-.32.31ZM280.85,162.85l.47.45v-.18l-.32-.28h-.15ZM281.31,163.45v.18l.62.27v-.47l-.62.03ZM281.93,160.96h.15s1.08-.38,1.08-.38v-.32c-.82.21-1.23.45-1.23.7ZM282.22,164.02l.5.77h.29v-.51l-.62-.27h-.18ZM282.4,159.85v.29l.47-.17v-.29l-.47.17ZM285.03,165.77v.15c.27.51.69.76,1.26.73l-1.26-.88Z"/>
    <path class="cls-2" d="M307.37,123.43l.29.31.32-.27.76.52v-.18c2.01,1.09,3.07,1.83,3.19,2.21.56.04.97.42,1.23,1.14.29.02.44.24.44.65.64.04,1.15.84,1.52,2.39l-.15.46.15-.14h.15c.62.74,1.7,3.95,3.21,9.66l.76,2.04-.17.13v.15c.41.58,1.12,2.76,2.13,6.56h.15s.32-3.63.32-3.63l-.15-.63v-.62l.29-.27-.29-.64.15-.75-.15-1.24.15-.14v-.15l-.32-.93.47-.44-.47-.03v-2.43c0-1.19.11-1.99.32-2.41l-.32-1.4.18-.13-.18-.77.18-.75-.18-.77.18-.46c-.21-1.95-.88-2.96-1.99-3.04-.39-.03-1.15.28-2.28.93l-.15-.19v-.15c1.31-1.53,2.52-2.41,3.65-2.65,0-.19.15-.28.44-.26l.47.18v-.15l.44-.44.61.04c.68.05,1.34.45,1.99,1.22.7-.56,1.31-.82,1.81-.78l.61.19.91-.08,2.46,1.37-.17.46.17-.13h.15c.99,1.06,1.55,1.8,1.67,2.23l-.15.17h-.15c-.45-.67-1.31-1.04-2.6-1.13-1.01-.07-1.52.86-1.52,2.8h-.15s.15.76.15.76v1.67c0,.22-.15.31-.44.29l.44.79-.44.41v.18l.44.18v.29h-.15s.15,1.08.15,1.08v2.43c0,.72-.1,1.27-.29,1.65l.15.16v.18l-.15.14v.15l.15.62-.15.14.15.48c.19.01.29.42.29,1.22.72.28,1.08.67,1.08,1.16v.29l.44-.26.76.96v.29c-1.81,1.91-2.72,3.22-2.72,3.94l.29.31-.29.45.15.16h.15s-.15.76-.15.76v.29l.15.62-.15.14v.15l.15.19v.15l-.15.14v.15l.15.48-.15.14v.15l.15.16v.18l-.15.14v.15l.15.16v.15l-.15.46.15.92-.29.3v.44l.29.49v.29l-.15.61.15.62-.29.89.29.34v.15l-.15.14.15.16v.32l-.15.14.15.16v.62l-.29.27.29,1.07-.15.14c.08,1.02.43,1.96,1.05,2.83l1.84.13,1.37-1.14.15.16c-.78,1.86-1.9,3-3.36,3.43l-2.28.78-.44-.03c-2.94-.2-4.41-.57-4.41-1.09l-.91-.36c-1.15-.82-2.16-2.92-3.04-6.3l.15-.14h.15s0-.28,0-.28c-.51-.04-.76-.35-.76-.96l.15-.46-.29-.31.29-.45c-.41-.03-.61-.5-.61-1.42l-.15.17h-.15s-.29-.97-.29-.97l.29-.27c-.33-.02-.54-.34-.61-.95h-.15s.15-1.08.15-1.08v-.29c-.55-.04-.9-.82-1.05-2.36-.6-.71-1.41-3.15-2.43-7.34-.39-.53-.7-1.37-.94-2.5h-.15s0,3.8,0,3.8l-.29.45.29,1.07-.29,1.36.29.93v.47l-.15,2.89.15.16v.15l-.15.14v.15l.15,2.15v.76c0,.21-.15.31-.44.29l.44.65-.15.58.15,1.53-.15.93c0,1.68.76,3.04,2.28,4.08h.15s0-.28,0-.28l.47.03c.33.02.68-.11,1.05-.4h.15s.32.35.32.35c-1.17,1.13-2.18,1.67-3.04,1.61-.78.55-1.59.8-2.43.74-.7-.05-1.41-.35-2.13-.91l-1.52.51-.61-.04c-.21-.01-.32-.18-.32-.49h-.15s-.44.28-.44.28c-.35-.38-1.11-.73-2.28-1.06l-1.99-1.84v-.15l.29.02,1.23.41.47.03.76-.12.29.34h.15s-.15-.15-.15-.15v-.18l1.37-1.43-.32-1.08.32-.71-.32-1.54.18-.75-.18-.48.18-.13-.18-.77v-1.23l.18-.6-.18-.63.18-1.66-.18-1.97v-.47l.18-.9-.18-.77v-.32l.18-.13c0-1.11-.57-2.12-1.7-3.02l-.58-.95v-.44c1.52-1.3,2.28-2.47,2.28-3.51l-.18-1.68v-2.29l.18-1.37-.18-1.1c0-.88.46-1.45,1.37-1.72v-.15h-.15s-.91.51-.91.51l-.32-.32v-1.82l.32.02-.15-.63.15-.46c-.23-.02-.39-.63-.47-1.85l-1.2-.99-.61-.04c-.58-.04-1.14.12-1.67.47l-.32-.02v-.15c1.81-1.69,2.87-2.53,3.19-2.51l1.37-.67c.27-.2.93-.31,1.99-.33ZM305.99,132.77h.15s.32-.26.32-.26h-.18s-.29.26-.29.26ZM306.75,131.62v.15l.15.48h.15s0-.46,0-.46l-.15-.16h-.15ZM307.51,131.35v.18l.15.45h.15s0-.14,0-.14l-.15-.48h-.15ZM307.51,157.72h.15s.32-.26.32-.26h-.17s-.29.26-.29.26ZM308.59,156.74v.44l.29.02.61-.54-.15-.19.15-.14-.91.41ZM315.87,154.19v.29l.47-.11v-.29l-.47.11ZM317.39,153.53h.15s.47-.1.47-.1v-.32l-.61.43ZM318.76,152.72c0,.2-.16.28-.47.26l-.15.14v.15h.15s.61-.53.61-.53h-.15ZM320.14,152.05l-.15.14v.15h.15s.44-.11.44-.11v-.15l-.44-.03ZM322.56,150.52l-1.52,1.13v.15c1.11-.59,1.67-1.01,1.67-1.26h-.15ZM321.8,127.76c0,.23.25.41.76.52,0-.23-.25-.41-.76-.52ZM323.94,129.14v.29l.91.38h.15s0-.14,0-.14l-1.05-.54ZM323.94,149.71h.15s.32-.26.32-.26h-.18s-.29.26-.29.26ZM325.46,130.15l.29.34.32.02v-.32l-.61-.04ZM325.75,150.59l-.15.14v.18l.91-.11v-.15l-.76-.05ZM325.75,148.31v.32l.47-.14v-.15l-.47-.03ZM326.69,147.46h.15s.29-.26.29-.26h-.15s-.29.26-.29.26ZM327.59,145.71l-.15.43v.32h.15s.15-.6.15-.6v-.15h-.15ZM327.74,147.07v.18l.61.04v-.18l-.61-.04ZM328.79,145.32l-.29.27-.47.58h.18s.76-.7.76-.7v-.15h-.18Z"/>
    <path class="cls-2" d="M364.45,130.53l.43.07c1.04.18,2.17,1.41,3.38,3.69l.35,1.14-.2-.04c-.52-.93-1.28-1.48-2.28-1.66-.52-.09-.93.15-1.24.72l.63,3.54c-.19-.03-.29.11-.29.42l-.14-.2-.2-.04v.79l.2.04.14-.59.29.05c.85,7.8,1.71,11.78,2.6,11.94l.29.99c.35.06.97.63,1.88,1.7v.18c-.85.87-1.47,1.7-1.88,2.49l2.8,16.95c.31.87.76,1.36,1.36,1.47l.46.08c.58.1,1.19-.2,1.85-.91l.14.17c-1.77,2.17-3.45,3.12-5.05,2.84l-1.85-1.4-.29-.05c-1.23.61-2.1.87-2.6.78l-.64-.11c-1.42-.25-2.74-1.52-3.95-3.82l.14.03c1.12.72,1.98,1.13,2.6,1.24.62.05.92-.31.92-1.07l-.43-2.57.87-.46-.14-.03-.72.2-.2-.21v-1.85c-.5-.09-.86-1.7-1.07-4.84l-.14-.17v-.15l-1.53-.27-1.67-.44-.46.07-2.17-.87c0,.25-.4.35-1.21.29-.6,3.35-1.16,5.79-1.67,7.3l-.14,2.29c.19.66.6,1.04,1.21,1.15.48.08.99-.04,1.53-.38v.35c-.42.88-1.43,1.64-3.03,2.26l-.64-.11c-.85-.15-1.71-.76-2.6-1.83l-.14-.02c-.9.66-1.72.93-2.45.8l-.63-.11c-2.44-1.05-3.67-2.26-3.67-3.62.67.55,1.34.88,1.99.99,1.14.2,1.95-.59,2.45-2.36l.14.02-.14-.2v-.47l1.39-3.6-.17-.18v-.35l.61-2.53-.14-.17,1.36-4.72-.14-.2v-.15c.17-.18.34-.88.49-2.08-.27-.81-.89-1.85-1.85-3.13.17-.44.93-1.09,2.28-1.95l1.1-1.36c0-.92.5-1.5,1.5-1.76v-.15l-.43-.22c-.08.51-.24.75-.49.71l-.14-.02v-.35c1.33-4.75,1.99-7.68,1.99-8.8l.32-1.17c0-1.46-.56-2.29-1.67-2.49l-1.38.38v-.15c1.21-1.84,2.34-2.67,3.38-2.49,0-.23.25-.31.75-.22v.18l.14-.15.35.06v.35l.29.05v-.35c1.29.22,2.61,1.13,3.95,2.71,1.29-1.42,2.42-2.04,3.38-1.88ZM349.93,162.35l-.14.12v.15l.14.03.43-.07v-.15l-.43-.08ZM350.83,162.36v.15l.17.03.58-.05v-.18l-.29-.05-.46.1ZM351.9,162.22v.32l.46-.1v-.15l-.46-.08ZM354.81,144.07v.47l.61-.36v-.15l-.61.04ZM356.2,132.36v.15l.14.02.64-.51-.14-.02c-.42.1-.63.22-.63.36ZM356.2,143.55v.29l2.6-1.1v-.15l-.32-.05-2.28,1.01ZM359.57,142.73c-.23,1.82-.6,2.68-1.1,2.59l.14.17-.43,2.27.14.49c-.52,1.14-1.14,3.26-1.85,6.36l-.14.15c.33.06.49.24.49.55l.14.17.14.03.58-.05,3.09.83c0-.2.31-.24.92-.13l-.92-7.02.14-.44c-.81-2.72-1.21-4.7-1.21-5.95l-.14-.02ZM357.41,130.98v.21l.14.03.49-.12v-.15l-.2-.04-.43.07ZM359.57,141.94l-.32.59.32.06.14-.47v-.15l-.14-.02ZM359.86,142.34l.14.02c.46-.13.72-.3.78-.51v-.15c-.62.21-.92.42-.92.63ZM361.22,142.72l.49.52h.9v.3l.49.08c0-.29-.26-.48-.78-.58v-.15l-.17.12-.14-.03-.78-.28ZM361.85,141.42l.14.03.61-.22v-.32l-.14-.03-.61.54ZM362.92,140.52v.29c.46-.06,1.07-.41,1.82-1.06l-.14-.03c-.42.04-.88.33-1.36.85l-.32-.05ZM363.39,143.68l.49.58.14-.12v-.21l-.63-.26ZM364.45,144.51l.43.54v-.18l-.29-.34-.14-.02ZM365.09,168.53l-.2.43.35.06v-.47l-.14-.02ZM365.23,145.26v.15l.61.28c0-.21-.15-.35-.46-.4l-.14-.03ZM365.52,168.45v.15l.32.06v-.44l-.32.24ZM365.84,170.06l.46.55v-.18l-.32-.35-.14-.02ZM366.3,170.76v.18l.61.4v-.47l-.61-.1ZM366.91,168.4l.14.03,1.07-.14v-.32c-.81.04-1.21.18-1.21.43ZM367.2,171.53l.49.88.29.05v-.5l-.61-.4-.17-.03ZM367.37,167.4v.29l.46-.07v-.29l-.46.07ZM369.97,173.88v.15c.27.57.68.91,1.24,1.01l-1.24-1.15Z"/>
  </g>
  <g>
    <path class="cls-2" d="M108.72,230.41l.29.33.32-.25.76.57v-.18c1.99,1.22,3.05,2.02,3.17,2.41.56.07.97.48,1.22,1.21.29.04.44.26.44.67.64.08,1.14.91,1.51,2.48l-.15.45.15-.13.15.02c.62.76,1.69,4.05,3.2,9.85l.76,2.09-.17.12v.15c.41.6,1.11,2.83,2.12,6.69l.15.02.32-3.62-.15-.63v-.62l.29-.26-.29-.65.15-.74-.15-1.25.15-.13v-.15l-.32-.95.46-.41-.46-.06v-2.43c0-1.19.11-1.99.32-2.39l-.32-1.42.17-.12-.17-.79.17-.74-.17-.79.17-.45c-.21-1.96-.87-3.01-1.98-3.16-.39-.05-1.14.21-2.27.79l-.15-.2v-.15c1.3-1.45,2.51-2.26,3.63-2.43,0-.2.15-.27.44-.24l.46.21v-.15l.44-.41.61.08c.68.09,1.34.54,1.98,1.34.7-.51,1.3-.74,1.8-.67l.61.23.9-.03,2.44,1.52-.17.45.17-.12.15.02c.99,1.11,1.54,1.88,1.66,2.33l-.15.16-.15-.02c-.45-.68-1.31-1.11-2.59-1.27-1.01-.13-1.51.77-1.51,2.7l-.15-.02.15.78v1.67c0,.21-.15.3-.44.27l.44.82-.44.38v.18l.44.2v.29l-.15-.02.15,1.1v2.43c0,.72-.1,1.27-.29,1.63l.15.17v.18l-.15.13v.15l.15.63-.15.13.15.49c.19.02.29.44.29,1.24.72.33,1.07.74,1.07,1.22v.29l.44-.24.76,1.01v.29c-1.8,1.8-2.7,3.06-2.7,3.78l.29.33-.29.43.15.17.15.02-.15.74v.29l.15.63-.15.13v.15l.15.19v.15l-.15.13v.15l.15.49-.15.13v.15l.15.17v.18l-.15.13v.15l.15.17v.15l-.15.45.15.93-.29.28v.44l.29.51v.29l-.15.6.15.63-.29.87.29.36v.15l-.15.13.15.17v.32l-.15.13.15.17v.62l-.29.25.29,1.09-.15.13c.08,1.03.43,1.99,1.05,2.89l1.83.24,1.37-1.05.15.17c-.77,1.81-1.89,2.89-3.34,3.23l-2.27.64-.44-.06c-2.92-.38-4.39-.84-4.39-1.36l-.9-.41c-1.14-.89-2.15-3.05-3.02-6.49l.15-.13.15.02v-.29c-.5-.07-.76-.4-.76-1.01l.15-.45-.29-.33.29-.43c-.41-.05-.61-.54-.61-1.46l-.15.16-.15-.02-.29-.98.29-.25c-.33-.04-.53-.37-.61-.99l-.15-.02.15-1.07v-.29c-.54-.07-.89-.88-1.05-2.42-.6-.74-1.4-3.24-2.41-7.49-.39-.56-.7-1.41-.93-2.55l-.15-.02v3.81l-.29.43.29,1.09-.29,1.34.29.95v.47l-.15,2.88.15.17v.15l-.15.13v.15l.15,2.16v.76c0,.22-.15.3-.44.27l.44.67-.15.57.15,1.54-.15.92c0,1.68.76,3.09,2.27,4.22l.15.02v-.29l.46.06c.33.04.68-.07,1.05-.33l.15.02.32.36c-1.16,1.06-2.17,1.53-3.02,1.42-.77.5-1.58.7-2.41.59-.7-.09-1.4-.44-2.12-1.04l-1.51.42-.61-.08c-.21-.03-.32-.2-.32-.51l-.15-.02-.44.27c-.35-.4-1.1-.8-2.27-1.2l-1.98-1.96v-.15l.29.04,1.22.48.46.06.76-.08.29.36.15.02-.15-.17v-.18l1.37-1.35-.32-1.1.32-.69-.32-1.56.17-.74-.17-.49.17-.12-.17-.78v-1.23l.17-.59-.17-.64.17-1.65-.17-1.99v-.47l.17-.89-.17-.78v-.32l.17-.12c0-1.11-.56-2.15-1.68-3.12l-.58-.98v-.44c1.51-1.21,2.27-2.33,2.27-3.37l-.17-1.69v-2.29l.17-1.35-.17-1.11c0-.88.46-1.42,1.37-1.64v-.15l-.15-.02-.9.47-.32-.33v-1.82l.32.04-.15-.63.15-.45c-.23-.03-.39-.66-.46-1.88l-1.19-1.06-.61-.08c-.58-.08-1.13.05-1.66.37l-.32-.04v-.15c1.8-1.58,2.86-2.35,3.17-2.31l1.37-.58c.27-.18.93-.25,1.98-.21ZM107.35,239.67l.15.02.32-.25-.17-.02-.29.25ZM108.11,238.57v.15l.15.49.15.02v-.47l-.15-.17-.15-.02ZM108.86,238.34v.18l.15.46.15.02v-.15l-.15-.49-.15-.02ZM108.86,264.71l.15.02.32-.25-.17-.02-.29.26ZM109.94,263.8v.44l.29.04.61-.51-.15-.2.15-.13-.9.35ZM117.17,261.69v.29l.46-.09v-.29l-.46.09ZM118.68,261.13l.15.02.46-.08v-.32l-.61.39ZM120.05,260.4c0,.2-.16.27-.46.23l-.15.13v.15l.15.02.61-.51-.15-.02ZM121.41,259.82l-.15.13v.15l.15.02.44-.09v-.15l-.44-.06ZM123.82,258.43l-1.51,1.03v.15c1.1-.52,1.66-.91,1.66-1.16l-.15-.02ZM123.07,235.63c0,.23.25.42.76.57,0-.23-.25-.42-.76-.57ZM125.19,237.13v.29l.9.44.15.02v-.15l-1.05-.61ZM125.19,257.7l.15.02.32-.25-.17-.02-.29.25ZM126.7,238.24l.29.36.32.04v-.32l-.61-.08ZM126.99,258.7l-.15.13v.18l.9-.06v-.15l-.76-.1ZM126.99,256.41v.32l.46-.12v-.15l-.46-.06ZM127.92,255.63l.15.02.29-.25-.15-.02-.29.25ZM128.82,253.93l-.15.42v.32l.15.02.15-.6v-.15l-.15-.02ZM128.97,255.29v.18l.61.08v-.18l-.61-.08ZM130.01,253.61l-.29.26-.46.55.17.02.75-.66v-.15l-.17-.02Z"/>
    <path class="cls-2" d="M166.14,231.81l.44-.04c1.54-.13,3.22.4,5.05,1.6l2.01,2.29.44-.18v.15c1.13,1.6,1.95,3.27,2.45,5.01.33.25.66,1.19.99,2.82l-.12.45c.27-.02.51.78.7,2.4l-.44.04c.39.59.58,1.05.58,1.39l-.15.89c.17-.01.42.39.73,1.23l-.15-.13h-.15v.16c.68.04,1.02.3,1.02.79.47.18.94.58,1.43,1.2l-2.16,2.64-.44.74.15.43-.15.45.15.72-1.28,7.05.15.57c-.47,1.68-1.05,2.93-1.75,3.75,0,1.78-1.39,3.82-4.17,6.12-1.67,1.53-2.88,2.36-3.62,2.5l-1.14-.2-.73.21c-2.38.2-4.73-1.01-7.06-3.62l-2.01-3.14c0-.86-.29-1.65-.88-2.39l.15-.45-.41-.4.26-.43v-.15c-.66.06-1.09-1.74-1.28-5.4-.16.01-.25-.32-.29-1v-.85l.15-.6-.15-.57v-.15l.15-.75-2.45-2.4v-.26c1.54-1.83,2.31-2.91,2.31-3.24,0-1.8.48-4.44,1.43-7.94.58-.93,1.02-2.08,1.31-3.45,1.3-2.39,2.5-3.79,3.59-4.2l-.15-.13v-.15c.95-1.53,2.06-2.34,3.33-2.45.23-.51.95-.81,2.16-.92ZM157.06,254.29h.15s.88-.38.88-.38v-.12h-.15c-.58.14-.88.3-.88.5ZM157.35,266.57l.29.27h.15v-.3l-.44.04ZM159.07,253.27v.15h.15s.73-.22.73-.22v-.29l-.88.37ZM160.65,267.02c0,.2.15.28.44.26l.29-.02v-.15l-.73-.08ZM161.09,252.66h.15s.29-.33.29-.33h-.15s-.29.33-.29.33ZM161.82,267.36c0,.2.15.28.44.26h.15v-.16l-.58-.1ZM161.96,252v.29l.58-.2v-.15l-.58.05ZM163.25,239l.15.72v.15l-.29.32.15,1.13-.15,6.54-.12,1.01.12.14v.15l-.12.16v.15l.12.14v.15l-.12.16v.15c.14.61.94,1.61,2.42,2.99v.15c-1.54,1.85-2.31,3.02-2.31,3.5l-.12,2.76.12.58-.26.32.26.27v.56l-.12.16.12.14v.15l-.12.74.12.43-.12.6.12,3.59v.15c0,.2-.19.31-.55.34v.29c.47-.04.7.37.7,1.23.49,1.99,1.45,2.92,2.89,2.8l.73-.06c1.5-.13,2.61-1.52,3.33-4.18-.06-.48-.2-.71-.44-.7l.29-.9-.29-.97.15-.6-.15-3.18.15-.16h.15s-.29-.69-.29-.69l.15-1.33-.15-1.16.15-1.59c0-.43-.82-1.51-2.45-3.25,1.63-1.97,2.45-3.16,2.45-3.55l-.15-.13v-.15l.44-.62c-.29-.33-.44-.65-.44-.96l.15-2.21-.15-1.72.15-.45-.15-.84v-1.32l.15-.6c-.1-.75-.54-1.92-1.31-3.49h-.15s-.15.17-.15.17c-.43-.16-1.05-.21-1.87-.14h-.15c-1.28.12-2.25.78-2.89,1.98h-.15ZM165.29,235.93v.15l.7.09h.15v-.16l-.73-.08h-.12ZM166.58,236.11v.29l.73.08.29-.02v-.15l-1.02-.21ZM167.74,273.52v.15l.26-.02.58-.2v-.15l-.29.02-.55.19ZM170.31,269.4l.58.36.29-.03v-.15l-.73-.2h-.15ZM171.33,269.73v.29h.15s.29-.33.29-.33l-.44.04ZM171.77,248.27h.15s.29-.33.29-.33h-.15s-.29.33-.29.33ZM172.76,247.49v.12l.15.13v.15l-.15.16v.29h.15c0-.3.15-.46.44-.49l.44.11-.73-.5-.29.02ZM173.64,247.27v.15l.44-.04c0-.2.15-.31.44-.33v-.15h-.15s-.73.37-.73.37ZM173.64,270.41v.15l.58-.05v-.15l-.58.05ZM174.37,246.47v.29h.15s.55-.5.55-.5h-.12s-.58.21-.58.21ZM175.95,246.34v.15l.58-.05v-.15l-.58.05ZM176.68,246.13v.15l.29-.02.55-.19v-.15l-.26.02-.58.2ZM177.11,249.14v.15l.55.1h.15v-.16l-.55-.1h-.15Z"/>
    <path class="cls-2" d="M213.57,226.95l.44.11.41-.18.29.27.32-.32c1.26.12,1.9.36,1.9.71l.73-.18c0,.2.68.67,2.04,1.43v.26l-.15-.1-.55.05v.12c.54-.05,1.03.05,1.46.31.78-.6,1.26-1.18,1.46-1.74.21-.02.71-.45,1.49-1.31l.15.13v.88l-.15.92.15.13v.15l-.15.42.15.6-.15.16.15.69v.76l-.15.63.15.69-.32,1.41.32.24-.15.6.15.13-.15,1.04v.29l.15,1.31-.15.16v.18l.15.57-.15,1.33.15,2.83c0,.57-.2.87-.61.9l-.26.02v-.15l-1.05.24-2.63.24-.29-.27.15-.75c-.19.02-.29-.12-.29-.41,0-.51.1-.77.29-.79l-.15-.69v-.91c0-.16.19-.32.58-.49l.12-.13v-.15h-.12s-.44.31-.44.31l-.29-1.15.29-.64c0-3.01-1.23-5.1-3.68-6.29l-.61.35-.55-.1c-1.56.14-2.65,1.26-3.27,3.37l.15.6-.26.32.12,2.36-.41,1.21.15,1.01v1.35c0,3.15.34,4.69,1.02,4.62l1.46,1.63v.18c-1.5,1.5-2.28,2.6-2.33,3.29l.12.14-.12,1.04v.15l.12,1.31-.26,2.87.26-.02-.12,1.48v.59l.12.87-.12.6.12,1.48-.12.16v.15c.27,2.59.56,3.88.88,3.85.68.54,1.52.77,2.51.68l.7-.36.47.1c.68-.06,1.22-1.18,1.61-3.37l.61-.2-.61-.71v-1.03c0-1.19.29-2.01.88-2.45l.29-.29v-.15l-1.02.97h-.15s0-.6,0-.6l.15-.86-.15-.75h.15s-.15-.41-.15-.41l.29-.64c-.17.02-.32-.41-.44-1.28l-.15.16h-.15s-.15-.12-.15-.12l-.17.02-.41.18c-.66-.84-1.29-1.42-1.9-1.73l-.9-.97.44-.04.76.08.26-.32.44.11,4.84-.7.9.04c0-.18.78-.49,2.33-.94.7-.67,1.34-1.03,1.93-1.08v.15l.88-.37.73-.07c.95-.09,1.79.63,2.51,2.15l-.44.19v.15c.29-.03.44.07.44.28,0,.53-.2.88-.61,1.05h-.15c-.21-.73-.7-1.07-1.46-1l-1.02.09c-1.17.48-1.75,1.81-1.75,4v1.9l-.15.13h-.15s.15.15.15.15v.18l-.15,1.07.15.13h.15s-.29,2.33-.29,2.33l.15.46h-.15s.29,2.33.29,2.33l-.15,1.04.15,1.31-.29.79.29-.03v1.32l-.29.03v.15l.29.59c-.1.79-.24,1.19-.44,1.21l-.32.03-.29-.3-2.19.52-.44-.14-1.31.29c-.88.02-1.31-.05-1.31-.2l-.9.23-1.93.03-1.6.47v-.18l-.15-.13-1.17.25c0-.14-.79-.35-2.36-.64-2.65-2.12-4.01-3.78-4.08-4.96-.89-1.27-1.54-2.59-1.93-3.96l-1.2-4.9h.15s.47.12.47.12c-.51-.52-.76-1.3-.76-2.33h.15s-.41-1.73-.41-1.73v-.15l.15-.89-.44-1.02.15-.16v-.12c-.19-.47-.5-.69-.9-.65,0-.43-.29-.71-.88-.83v-.12c.21-.43.51-.66.88-.69v-.15l-.29.03-.73.54-.29.03v-.18l2.36-2.88c.16-.89.34-1.35.55-1.37v-1.03l.32-1.23-.17-.13v-.12c0-.62.25-1.1.76-1.42l-.15-.4c.54-2.92,1.03-4.4,1.46-4.44.19-1.5,1.22-3.36,3.09-5.58.27-.34.57-.52.9-.55l-.17-.13v-.15c1.17-.96,1.76-1.56,1.78-1.77l3.38-1.33ZM200.9,248.75v.15l.47-.04v-.29l-.47.19ZM202.68,247.42h.15s.29-.33.29-.33h-.15s-.29.33-.29.33ZM203.73,258.81v.15l.26.3v-.15l-.26-.3ZM205.05,246.15v.29l.44-.19v-.15l-.44.04ZM205.49,260.87v.15c.45.64.79.95,1.02.93v-.15l-1.02-.93ZM205.89,245.66l-.15.16v.12h.15s.47-.17.47-.17v-.15l-.47.04ZM206.94,245.1v.18h.15s.58-.53.58-.53h-.15s-.58.36-.58.36ZM207.21,269.1v.18l.61-.06.44-.36.73-.07v-.29h-.12s-1.66.6-1.66.6ZM207.67,231.17v.15l.58-.05v-.15l-.58.05ZM208.11,244.41l-.29.61h.15s.61-.65.61-.65l-.47.04ZM208.4,263.72v.29l1.31,1.2.17-.02-1.31-1.49-.17.02ZM208.87,243.75l.12.17v.09l.44-.13v-.32h-.15s-.41.2-.41.2ZM209.28,268.76h.15c.43-.34.83-.53,1.2-.56v-.12l-.29.03c-.7.3-1.05.51-1.05.65ZM211.2,229.68v.12l.58-.05v-.12l-.58.05ZM212.4,229.14v.15h.12s1.05-.25,1.05-.25v-.15l-.61.06-.55.2ZM216.92,265.58v.18l.61-.06v-.32l-.61.2ZM217.39,228.68v.15l1.31.17c0-.19-.39-.31-1.17-.33h-.15ZM218.09,264.89v.15l.47-.04v-.29l-.47.19ZM218.09,265.74v.18l.61-.06v-.18l-.61.06ZM218.85,257.59v.18h.15s.41-.23.41-.23v-.29l-.55.34ZM219.14,264.65h.15s.26-.33.26-.33h-.15s-.26.33-.26.33ZM219.55,239.09l.15.16v.15l-.15.13.15.13.32-.03-.15-.13v-.12l.15-.48-.47.19ZM219.55,240.27h.15s.32-.33.32-.33h-.15s-.32.33-.32.33ZM220.16,256.15c0,.31-.16.48-.47.51l-.15.16v.12h.15s.76-.81.76-.81l-.29.03ZM220.45,238.72h.15s.32-.33.32-.33l-.17.02-.29.32ZM220.6,257.6v.15l.58-.05v-.15l-.58.05ZM220.6,263.49h.15s.32-.34.32-.34v-.15l-.47.48ZM221.62,254.96c0,.21-.15.33-.44.36v.15l.29-.03.29-.5h-.15ZM221.33,254.9h.15s.29-.36.29-.36h-.15s-.29.36-.29.36ZM221.48,237.87v.18h.15c0-.4.54-.84,1.61-1.33v-.15h-.15c-.99.57-1.53,1-1.6,1.3ZM221.48,257.52v.15l.61-.05v-.15l-.61.05ZM221.77,239.22v.12l.61-.05v-.12l-.61.05ZM221.91,229.12v.15l.61-.06v-.15l-.61.06ZM222.23,253.73l.44.43c.8-1.36,1.28-2.05,1.46-2.07l.15.13.44-.04v-.15l-.44.04v-.15l.73-.92h-.15c-1.48,1.79-2.35,2.69-2.63,2.71ZM224.86,252.03v.15l.29-.03.15-.16v-.15l-.44.19ZM225.91,250.03l-.32.61.17-.02c.31-.12.5-.34.55-.64l-.41.04ZM225.91,251.5v.15l.85-.08v-.15l-.85.08Z"/>
    <path class="cls-2" d="M269.17,227.03l.44.04c1.05.1,2.19,1.25,3.41,3.45l.35,1.12-.2-.02c-.52-.89-1.29-1.39-2.3-1.49-.53-.05-.94.22-1.25.81l.64,3.49c-.19-.02-.29.13-.29.44l-.15-.19-.2-.02v.79l.2.02.15-.6.29.03c.85,7.74,1.73,11.66,2.62,11.75l.29.97c.35.04.98.56,1.89,1.57v.18c-.86.93-1.49,1.8-1.89,2.62l2.83,16.75c.31.85.77,1.31,1.37,1.37l.47.05c.58.06,1.21-.29,1.87-1.04l.15.16c-1.79,2.3-3.49,3.37-5.1,3.21l-1.87-1.27-.29-.03c-1.24.7-2.12,1.02-2.62.97l-.64-.06c-1.44-.14-2.77-1.32-3.99-3.53h.15c1.13.65,2,1.01,2.62,1.07.62,0,.93-.38.93-1.14l-.44-2.53.88-.53h-.15s-.73.24-.73.24l-.2-.2v-1.85c-.5-.05-.86-1.64-1.08-4.77l-.15-.16v-.15l-1.55-.15-1.69-.32-.47.1-2.19-.72c0,.25-.41.38-1.22.38-.6,3.4-1.17,5.87-1.69,7.42l-.15,2.3c.19.64.6,1,1.22,1.06.49.05,1-.12,1.54-.49v.35c-.43.91-1.45,1.74-3.06,2.48l-.64-.06c-.86-.08-1.73-.63-2.62-1.64h-.15c-.91.71-1.74,1.04-2.48.97l-.64-.06c-2.47-.87-3.7-1.99-3.7-3.36.68.5,1.35.78,2.01.84,1.15.11,1.97-.73,2.48-2.54h.15s-.15-.18-.15-.18v-.47l1.4-3.7-.18-.16v-.35l.61-2.58-.15-.16,1.37-4.81-.15-.19v-.15c.17-.2.34-.9.5-2.12-.27-.79-.89-1.79-1.87-3,.17-.45.94-1.16,2.3-2.11l1.11-1.44c0-.92.5-1.54,1.52-1.87v-.15l-.44-.19c-.08.52-.24.77-.5.74h-.15v-.37c1.34-4.85,2.01-7.83,2.01-8.94l.32-1.2c0-1.46-.56-2.25-1.69-2.37l-1.4.48v-.15c1.22-1.93,2.36-2.84,3.41-2.74,0-.23.25-.33.76-.28v.18l.15-.16.35.03v.35l.29.03v-.35c1.3.13,2.63.94,3.99,2.42,1.3-1.51,2.44-2.22,3.41-2.12ZM254.5,259.91l-.15.13v.15h.15s.44-.09.44-.09v-.15l-.44-.04ZM255.41,259.85v.15l.17.02.58-.09v-.18l-.29-.03-.47.13ZM256.48,259.64v.32l.47-.13v-.15l-.47-.05ZM259.43,241.27v.47l.61-.41v-.15l-.61.09ZM260.83,229.45v.15h.15s.64-.54.64-.54h-.15c-.43.12-.64.25-.64.39ZM260.83,240.65v.29l2.62-1.29v-.15l-.32-.03-2.3,1.18ZM264.24,239.58c-.23,1.83-.6,2.72-1.11,2.67l.15.16-.44,2.3.15.48c-.53,1.18-1.15,3.34-1.87,6.49l-.15.16c.33.03.5.21.5.52l.15.16h.15s.58-.07.58-.07l3.12.6c0-.2.31-.26.93-.2l-.93-6.95.15-.45c-.82-2.66-1.22-4.61-1.22-5.86h-.15ZM262.05,227.99v.21h.15s.5-.14.5-.14v-.15l-.2-.02-.44.1ZM264.24,238.79l-.32.61.32.03.15-.48v-.15h-.15ZM264.53,239.17h.15c.47-.15.73-.34.79-.55v-.15c-.62.25-.93.48-.93.7ZM265.9,239.45l.5.49.9-.06v.29l.5.05c0-.29-.26-.46-.79-.52v-.15l-.17.13h-.15s-.79-.24-.79-.24ZM266.54,238.11h.15s.61-.25.61-.25v-.32h-.15s-.61.57-.61.57ZM267.62,237.13v.29c.47-.09,1.08-.49,1.84-1.19h-.15c-.43.06-.88.38-1.37.93l-.32-.03ZM268.09,240.26l.5.55.15-.13v-.21l-.64-.21ZM269.17,241.01l.44.51v-.18l-.29-.32h-.15ZM269.81,264.98l-.2.45.35.04v-.47h-.15ZM269.95,241.7v.15l.61.24c0-.21-.16-.34-.47-.37h-.15ZM270.24,264.88v.15l.32.03v-.44l-.32.26ZM270.56,266.46l.47.52v-.18l-.32-.33h-.15ZM271.03,267.12v.18l.61.35v-.47l-.61-.06ZM271.64,264.72h.15s1.08-.2,1.08-.2v-.32c-.82.09-1.22.27-1.22.52ZM271.94,267.83l.5.84.29.03v-.5l-.61-.35-.17-.02ZM272.11,263.68v.29l.47-.1v-.29l-.47.1ZM274.73,269.98v.15c.27.55.69.86,1.25.92l-1.25-1.06Z"/>
  </g>
  <g>
    <path class="cls-2" d="M114.6,116.96c.55.17.92.23,1.09.19.17-.04.3-.21.4-.52l.07-.22,1.92.58-.99,3.3-1.92-.58.11-.38c.09-.31.08-.52-.04-.65-.12-.13-.46-.27-1.01-.44l-8.27-2.49c-.55-.17-.92-.23-1.09-.19-.17.04-.3.21-.4.52l-.11.38-1.92-.58,1.22-4.05,9.42,1.37-8.6-4.12,1.21-4.01,1.92.58-.12.39c-.09.3-.08.52.04.65.12.13.46.28,1.01.44l8.27,2.49c.55.17.92.23,1.09.19.17-.04.3-.21.39-.52l.12-.39,1.92.58-1.22,4.05-1.92-.58.07-.23c.09-.3.08-.51-.04-.64-.12-.13-.46-.27-1.02-.44l-9.15-2.75,11.76,5.62-.47,1.55-12.92-1.85,9.17,2.75Z"/>
    <path class="cls-2" d="M122.57,104.43l-1.76-.95.21-.39c.15-.27.18-.49.09-.63-.09-.15-.39-.36-.91-.64l-7.6-4.11c-.52-.28-.87-.42-1.04-.41-.17,0-.33.15-.48.42l-.21.39-1.76-.95,3.79-7,5.13,2.77-.5.93c-.81-.37-1.44-.62-1.89-.75-.44-.14-.82-.2-1.12-.2-.31,0-.56.08-.77.24-.21.15-.46.5-.75,1.03l-.5.92,3.83,2.07.09-.18c.21-.39.21-.73,0-1.01-.21-.28-.74-.66-1.6-1.12l.48-.89,6.14,3.32-.49.88c-.94-.49-1.58-.76-1.93-.79-.35-.03-.63.16-.85.56l-.09.18,4.34,2.35.51-.95c.42-.78.45-1.44.09-1.99-.36-.55-1.27-1.27-2.74-2.16l.5-.93,5.55,3-3.78,7Z"/>
    <path class="cls-2" d="M129.78,92.22l-1.56-1.26.28-.35c.2-.24.27-.44.21-.61-.06-.16-.32-.43-.77-.8l-6.71-5.44c-.46-.37-.78-.57-.94-.6-.17-.02-.35.09-.55.33l-.28.35-1.56-1.26,2.96-3.66c.66-.82,1.37-1.23,2.13-1.25.76-.02,1.62.37,2.58,1.15.66.53,1.14,1.1,1.43,1.71.3.61.4,1.23.32,1.85.67-.36,1.36-.48,2.07-.34.71.14,1.47.53,2.27,1.18,1.17.94,1.83,1.83,1.99,2.67s-.17,1.76-.99,2.76l-2.88,3.55ZM125,83.92l.34-.42c.34-.42.44-.83.32-1.24s-.49-.87-1.09-1.36c-.58-.47-1.07-.72-1.47-.75-.41-.03-.77.16-1.11.57l-.37.46,3.38,2.74ZM130.39,88.29l.4-.49c.38-.46.5-.93.36-1.39-.13-.46-.53-.96-1.19-1.5-.69-.56-1.28-.86-1.76-.9-.48-.04-.92.18-1.3.65l-.39.48,3.88,3.15Z"/>
    <path class="cls-2" d="M129.08,70.04l3.55-3.05,1.31,1.52-.38.33c-.24.21-.35.4-.32.57.03.17.24.48.61.92l6.49,7.56.48-.41c.46-.4.75-.71.85-.95.1-.24.13-.51.07-.81-.07-.33-.24-.74-.52-1.2-.28-.47-.72-1.08-1.32-1.84l.8-.69,4.07,4.74-5.72,4.92-1.31-1.52.34-.29c.24-.2.34-.39.31-.56-.03-.17-.24-.48-.62-.92l-5.63-6.55c-.39-.45-.66-.7-.82-.75-.16-.05-.36.02-.6.23l-.34.29-1.31-1.52Z"/>
    <path class="cls-2" d="M149.6,73.21l-1.01-1.73.38-.22c.27-.16.41-.32.41-.5,0-.17-.15-.51-.44-1.02l-4.35-7.46c-.3-.51-.52-.81-.67-.89s-.36-.04-.63.12l-.38.22-1.01-1.73,6.87-4.01,2.94,5.04-.91.53c-.51-.74-.91-1.28-1.22-1.63-.31-.35-.59-.6-.85-.75-.26-.16-.52-.22-.78-.2-.26.02-.65.19-1.17.49l-.9.53,2.19,3.76.17-.1c.38-.22.56-.51.53-.86-.03-.35-.29-.95-.78-1.79l.87-.51,3.52,6.03-.88.5c-.54-.91-.96-1.47-1.24-1.68-.28-.21-.62-.19-1.02.04l-.17.1,2.49,4.26.93-.54c.76-.44,1.13-1,1.11-1.65-.02-.66-.43-1.75-1.22-3.27l.91-.53,3.18,5.45-6.87,4.01Z"/>
    <path class="cls-2" d="M169.61,51.46c-.12-.57-.24-.91-.36-1.04s-.33-.16-.64-.1l-.41.09-.42-1.96,3.76-.81,5.25,9.78-1.54-7.17c-.12-.57-.24-.91-.36-1.04-.12-.13-.33-.16-.64-.1l-.45.1-.42-1.96,3.59-.77.42,1.96-.37.08c-.31.07-.49.18-.55.35-.06.17-.02.53.1,1.1l2.5,11.7-2.42.52-5.61-10.44,1.68,7.87c.12.57.24.91.36,1.04.12.13.33.16.64.1l.45-.1.42,1.96-3.64.78-.42-1.96.41-.09c.31-.07.49-.18.55-.35s.02-.53-.1-1.1l-1.81-8.45Z"/>
    <path class="cls-2" d="M185.35,60.86l-.04-2h.29c.26-.01.45-.1.57-.26.12-.16.23-.58.33-1.25l1.8-11.86,2.4-.05,2.25,11.83c.11.58.23.95.34,1.13s.29.27.51.26h.41s.05,1.99.05,1.99l-4.44.1-.05-2h.34c.29-.01.48-.06.58-.14.1-.08.14-.22.14-.43,0-.07-.02-.17-.05-.32-.01-.07-.02-.13-.03-.17l-.35-1.87-2.31.05-.26,1.77c-.01.1-.02.21-.03.32,0,.11-.01.21-.01.29,0,.21.05.35.13.43.08.08.26.11.53.1h.39s.04,1.99.04,1.99l-3.53.08ZM190.02,53.84l-.92-4.81-.72,4.85,1.63-.04Z"/>
    <path class="cls-2" d="M211.15,63.22l1.71-10.79c.17-1.07.23-1.77.18-2.08s-.2-.54-.44-.67l.57-1.85,3.46,1.08-.57,1.85-.06-.02c-.2-.06-.37-.06-.5,0-.13.07-.23.2-.29.39-.03.08-.06.21-.09.38-.03.17-.07.41-.12.73l-1.25,7.75,3.06-6.14c.22-1.07.31-1.8.27-2.2-.04-.4-.21-.65-.51-.74l.57-1.85,3.6,1.12-.57,1.84s-.07-.02-.1-.04c-.04-.01-.09-.03-.16-.05-.2-.06-.35-.05-.46.03-.11.08-.2.26-.29.54-.02.08-.05.17-.07.27-.02.11-.05.22-.07.33l-1.4,8.09,3.46-7.38c.07-.15.13-.27.17-.38.04-.1.08-.19.1-.26.08-.26.08-.46,0-.61-.08-.14-.27-.26-.58-.35l.58-1.85,2.81.87-.57,1.85c-.26-.06-.5.01-.71.21-.21.2-.46.6-.74,1.2l-4.97,10.58-2.05-.64,1.01-6.49-2.87,5.92-2.13-.66Z"/>
    <path class="cls-2" d="M231.11,67.74c-.32.58-.49.97-.5,1.17-.02.2.12.38.4.54l.5.28-.95,1.71-4.25-2.36.95-1.71.49.27c.29.16.52.18.69.06.17-.12.41-.47.73-1.04l1.36-2.45,1-5.44c.13-.72.16-1.23.09-1.56-.08-.32-.26-.58-.56-.77l.93-1.7,4.03,2.24-.94,1.69-.34-.19c-.15-.08-.28-.1-.4-.06-.12.04-.22.15-.32.31-.04.08-.08.19-.12.34-.04.15-.09.39-.14.7l-.52,2.87,2.47-2.2c.11-.09.2-.19.29-.3.09-.1.16-.21.22-.31.08-.15.1-.28.04-.4s-.18-.23-.37-.33l-.17-.09.94-1.69,2.98,1.66-.94,1.69-.03-.02c-.26-.15-.53-.17-.81-.07-.28.1-.71.42-1.29.96l-4.09,3.73-1.36,2.45Z"/>
    <path class="cls-2" d="M240.95,74.56c-.38.44-.58.74-.62.92-.03.17.07.36.31.57l.17.15-1.31,1.52-2.61-2.25,1.31-1.52.3.26c.24.21.45.28.61.23.17-.06.44-.31.82-.74l5.64-6.54c.38-.44.58-.74.62-.92.03-.17-.07-.36-.31-.57l-.3-.26,1.31-1.52,3.2,2.76-5.09,8.05,7.27-6.17,3.17,2.73-1.31,1.52-.31-.27c-.24-.21-.44-.28-.61-.22-.17.06-.44.3-.82.74l-5.64,6.54c-.38.44-.58.75-.61.92s.07.36.31.57l.31.27-1.31,1.52-3.2-2.76,1.31-1.52.18.16c.24.2.44.28.6.22.16-.06.44-.3.82-.75l6.23-7.24-9.93,8.45-1.23-1.06,6.95-11.04-6.25,7.25Z"/>
    <path class="cls-2" d="M249.23,87.15l1.56-1.26.31.38c.2.24.38.35.55.33.17-.02.48-.22.94-.59l6.72-5.43c.46-.37.72-.64.78-.8.06-.16-.01-.36-.21-.6l-.31-.38,1.56-1.26,2.99,3.69-1.56,1.26-.31-.38c-.2-.25-.39-.36-.56-.33-.18.03-.49.22-.94.58l-6.72,5.43c-.45.36-.71.63-.77.79-.06.17,0,.37.21.62l.31.38-1.56,1.26-2.99-3.69Z"/>
    <path class="cls-2" d="M255.45,95.27l1.74-.99.15.25c.13.23.29.35.49.38.2.03.62-.08,1.25-.31l11.28-4.06,1.19,2.08-9.33,7.61c-.45.38-.73.66-.83.84-.1.19-.1.38.01.58l.2.36-1.74.99-2.2-3.86,1.74-.99.17.29c.14.25.27.4.39.45s.27.02.45-.08c.06-.04.14-.1.26-.2.06-.05.1-.08.13-.1l1.48-1.2-1.15-2.01-1.68.61c-.1.04-.2.08-.3.12s-.19.09-.26.13c-.18.1-.28.21-.31.32-.03.11.03.28.16.52l.19.34-1.74.99-1.75-3.06ZM263.84,96.03l3.79-3.1-4.6,1.68.81,1.42Z"/>
    <path class="cls-2" d="M266.31,109.96c-.55.19-.88.35-.99.48-.12.13-.12.35-.02.65l.14.4-1.9.65-1.49-4.36,1.9-.65.14.42c.1.3.24.46.41.5s.53-.04,1.08-.23l8.17-2.8c.56-.19.9-.35,1-.48s.11-.34.01-.64l-.14-.42,1.9-.65,1.71,5.01c.32.93.26,1.72-.18,2.38-.44.66-1.26,1.19-2.48,1.61-.85.29-1.6.38-2.26.27-.66-.11-1.19-.41-1.59-.91.01.54-.17.99-.55,1.35-.38.36-1.01.69-1.9,1l-1.4.48c-.6.21-1,.37-1.2.49-.2.12-.28.24-.23.37.05.14.24.19.58.14.34-.05.94-.23,1.81-.53l.26.76c-.07.02-.17.06-.29.1-.12.05-.21.08-.27.1-1.33.45-2.36.65-3.09.58-.73-.07-1.2-.41-1.41-1.01-.22-.64-.08-1.21.41-1.71.5-.5,1.38-.97,2.66-1.41l1.38-.47c.81-.28,1.31-.52,1.51-.74.2-.22.23-.54.08-.97l-.32-.93-3.45,1.18ZM271.66,108.13l.28.8c.2.58.47.92.83,1.03.36.11.9.04,1.64-.21.77-.26,1.28-.56,1.53-.87.25-.32.28-.73.11-1.25l-.31-.89-4.08,1.4Z"/>
  </g>
</svg>